solid patch_0_0
 facet normal 0.0 0.0 1.0
  outer loop
   vertex -0.022652475357055665 -0.01645798683166504 2.0
   vertex -0.021574371337890627 -0.01784787178039551 2.0
   vertex -0.020411121368408204 -0.01916731834411621 2.0
  endloop
 endfacet
 facet normal 0.0 0.0 1.0
  outer loop
   vertex -0.015003149986267091 -0.023641181945800782 2.0
   vertex -0.01916731834411621 -0.020411121368408204 2.0
   vertex -0.01784787178039551 -0.021574371337890627 2.0
  endloop
 endfacet
 facet normal 0.0 0.0 1.0
  outer loop
   vertex -0.015003149986267091 -0.023641181945800782 2.0
   vertex -0.01784787178039551 -0.021574371337890627 2.0
   vertex -0.01645798683166504 -0.022652475357055665 2.0
  endloop
 endfacet
 facet normal 0.0 0.0 1.0
  outer loop
   vertex -0.026033740997314453 -0.01030748748779297 2.0
   vertex -0.022652475357055665 -0.01645798683166504 2.0
   vertex -0.020411121368408204 -0.01916731834411621 2.0
  endloop
 endfacet
 facet normal 0.0 0.0 1.0
  outer loop
   vertex -0.026033740997314453 -0.01030748748779297 2.0
   vertex -0.02533515739440918 -0.011921820640563964 2.0
   vertex -0.024536586761474608 -0.013489103317260743 2.0
  endloop
 endfacet
 facet normal 0.0 0.0 1.0
  outer loop
   vertex -0.026033740997314453 -0.01030748748779297 2.0
   vertex -0.024536586761474608 -0.013489103317260743 2.0
   vertex -0.023641181945800782 -0.015003149986267091 2.0
  endloop
 endfacet
 facet normal 0.0 0.0 1.0
  outer loop
   vertex -0.026033740997314453 -0.01030748748779297 2.0
   vertex -0.023641181945800782 -0.015003149986267091 2.0
   vertex -0.022652475357055665 -0.01645798683166504 2.0
  endloop
 endfacet
 facet normal 0.0 0.0 1.0
  outer loop
   vertex -0.006963316917419434 -0.027120328903198244 2.0
   vertex -0.01030748748779297 -0.026033740997314453 2.0
   vertex -0.008652476310729981 -0.02662958335876465 2.0
  endloop
 endfacet
 facet normal 0.0 0.0 1.0
  outer loop
   vertex -0.027504043579101564 -0.005246676921844482 2.0
   vertex -0.027120328903198244 -0.006963316917419434 2.0
   vertex -0.02662958335876465 -0.008652476310729981 2.0
  endloop
 endfacet
 facet normal 0.0 0.0 1.0
  outer loop
   vertex -0.005246676921844482 -0.027504043579101564 2.0
   vertex -0.01916731834411621 -0.020411121368408204 2.0
   vertex -0.015003149986267091 -0.023641181945800782 2.0
  endloop
 endfacet
 facet normal 0.0 0.0 1.0
  outer loop
   vertex -0.005246676921844482 -0.027504043579101564 2.0
   vertex -0.01030748748779297 -0.026033740997314453 2.0
   vertex -0.006963316917419434 -0.027120328903198244 2.0
  endloop
 endfacet
 facet normal 0.0 0.0 1.0
  outer loop
   vertex -0.005246676921844482 -0.027504043579101564 2.0
   vertex -0.015003149986267091 -0.023641181945800782 2.0
   vertex -0.013489103317260743 -0.024536586761474608 2.0
  endloop
 endfacet
 facet normal 0.0 0.0 1.0
  outer loop
   vertex -0.005246676921844482 -0.027504043579101564 2.0
   vertex -0.013489103317260743 -0.024536586761474608 2.0
   vertex -0.011921820640563964 -0.02533515739440918 2.0
  endloop
 endfacet
 facet normal 0.0 0.0 1.0
  outer loop
   vertex -0.005246676921844482 -0.027504043579101564 2.0
   vertex -0.011921820640563964 -0.02533515739440918 2.0
   vertex -0.01030748748779297 -0.026033740997314453 2.0
  endloop
 endfacet
 facet normal 0.0 0.0 1.0
  outer loop
   vertex -0.0017581346035003662 -0.027944747924804687 2.0
   vertex -0.01916731834411621 -0.020411121368408204 2.0
   vertex -0.005246676921844482 -0.027504043579101564 2.0
  endloop
 endfacet
 facet normal 0.0 0.0 1.0
  outer loop
   vertex -0.0017581346035003662 -0.027944747924804687 2.0
   vertex -0.005246676921844482 -0.027504043579101564 2.0
   vertex -0.0035093305110931398 -0.027779211044311525 2.0
  endloop
 endfacet
 facet normal 0.0 0.0 1.0
  outer loop
   vertex -0.027944747924804687 0.0017581346035003662 2.0
   vertex -0.028 -7.117797426762703e-17 2.0
   vertex -0.027944747924804687 -0.0017581346035003662 2.0
  endloop
 endfacet
 facet normal 0.0 0.0 1.0
  outer loop
   vertex -0.027779211044311525 0.0035093305110931398 2.0
   vertex -0.026033740997314453 -0.01030748748779297 2.0
   vertex -0.020411121368408204 -0.01916731834411621 2.0
  endloop
 endfacet
 facet normal 0.0 0.0 1.0
  outer loop
   vertex -0.027779211044311525 0.0035093305110931398 2.0
   vertex -0.027504043579101564 -0.005246676921844482 2.0
   vertex -0.02662958335876465 -0.008652476310729981 2.0
  endloop
 endfacet
 facet normal 0.0 0.0 1.0
  outer loop
   vertex -0.027779211044311525 0.0035093305110931398 2.0
   vertex -0.027944747924804687 -0.0017581346035003662 2.0
   vertex -0.027779211044311525 -0.0035093305110931398 2.0
  endloop
 endfacet
 facet normal 0.0 0.0 1.0
  outer loop
   vertex -0.027779211044311525 0.0035093305110931398 2.0
   vertex -0.027944747924804687 0.0017581346035003662 2.0
   vertex -0.027944747924804687 -0.0017581346035003662 2.0
  endloop
 endfacet
 facet normal 0.0 0.0 1.0
  outer loop
   vertex -0.027779211044311525 0.0035093305110931398 2.0
   vertex -0.027779211044311525 -0.0035093305110931398 2.0
   vertex -0.027504043579101564 -0.005246676921844482 2.0
  endloop
 endfacet
 facet normal 0.0 0.0 1.0
  outer loop
   vertex -0.027779211044311525 0.0035093305110931398 2.0
   vertex -0.02662958335876465 -0.008652476310729981 2.0
   vertex -0.026033740997314453 -0.01030748748779297 2.0
  endloop
 endfacet
 facet normal 0.0 0.0 1.0
  outer loop
   vertex -0.027779211044311525 0.0035093305110931398 2.0
   vertex -0.020411121368408204 -0.01916731834411621 2.0
   vertex -0.01916731834411621 -0.020411121368408204 2.0
  endloop
 endfacet
 facet normal 0.0 0.0 1.0
  outer loop
   vertex 0.005246676921844482 -0.027504043579101564 2.0
   vertex 0.0017581346035003662 -0.027944747924804687 2.0
   vertex 0.0035093305110931398 -0.027779211044311525 2.0
  endloop
 endfacet
 facet normal 0.0 0.0 1.0
  outer loop
   vertex -0.027120328903198244 0.006963316917419434 2.0
   vertex -0.027504043579101564 0.005246676921844482 2.0
   vertex -0.027779211044311525 0.0035093305110931398 2.0
  endloop
 endfacet
 facet normal 0.0 0.0 1.0
  outer loop
   vertex -0.02662958335876465 0.008652476310729981 2.0
   vertex -0.027120328903198244 0.006963316917419434 2.0
   vertex -0.027779211044311525 0.0035093305110931398 2.0
  endloop
 endfacet
 facet normal 0.0 0.0 1.0
  outer loop
   vertex 0.008652476310729981 -0.02662958335876465 2.0
   vertex 0.0017581346035003662 -0.027944747924804687 2.0
   vertex 0.005246676921844482 -0.027504043579101564 2.0
  endloop
 endfacet
 facet normal 0.0 0.0 1.0
  outer loop
   vertex 0.008652476310729981 -0.02662958335876465 2.0
   vertex -0.0017581346035003662 -0.027944747924804687 2.0
   vertex -5.143516516159909e-18 -0.028 2.0
  endloop
 endfacet
 facet normal 0.0 0.0 1.0
  outer loop
   vertex 0.008652476310729981 -0.02662958335876465 2.0
   vertex -5.143516516159909e-18 -0.028 2.0
   vertex 0.0017581346035003662 -0.027944747924804687 2.0
  endloop
 endfacet
 facet normal 0.0 0.0 1.0
  outer loop
   vertex 0.008652476310729981 -0.02662958335876465 2.0
   vertex 0.005246676921844482 -0.027504043579101564 2.0
   vertex 0.006963316917419434 -0.027120328903198244 2.0
  endloop
 endfacet
 facet normal 0.0 0.0 1.0
  outer loop
   vertex -0.024536586761474608 0.013489103317260743 2.0
   vertex -0.02533515739440918 0.011921820640563964 2.0
   vertex -0.026033740997314453 0.01030748748779297 2.0
  endloop
 endfacet
 facet normal 0.0 0.0 1.0
  outer loop
   vertex -0.024536586761474608 0.013489103317260743 2.0
   vertex -0.026033740997314453 0.01030748748779297 2.0
   vertex -0.02662958335876465 0.008652476310729981 2.0
  endloop
 endfacet
 facet normal 0.0 0.0 1.0
  outer loop
   vertex 0.01645798683166504 -0.022652475357055665 2.0
   vertex 0.01030748748779297 -0.026033740997314453 2.0
   vertex 0.011921820640563964 -0.02533515739440918 2.0
  endloop
 endfacet
 facet normal 0.0 0.0 1.0
  outer loop
   vertex 0.01645798683166504 -0.022652475357055665 2.0
   vertex 0.011921820640563964 -0.02533515739440918 2.0
   vertex 0.013489103317260743 -0.024536586761474608 2.0
  endloop
 endfacet
 facet normal 0.0 0.0 1.0
  outer loop
   vertex 0.01645798683166504 -0.022652475357055665 2.0
   vertex 0.013489103317260743 -0.024536586761474608 2.0
   vertex 0.015003149986267091 -0.023641181945800782 2.0
  endloop
 endfacet
 facet normal 0.0 0.0 1.0
  outer loop
   vertex -0.022652475357055665 0.01645798683166504 2.0
   vertex -0.023641181945800782 0.015003149986267091 2.0
   vertex -0.024536586761474608 0.013489103317260743 2.0
  endloop
 endfacet
 facet normal 0.0 0.0 1.0
  outer loop
   vertex -0.022652475357055665 0.01645798683166504 2.0
   vertex -0.024536586761474608 0.013489103317260743 2.0
   vertex -0.02662958335876465 0.008652476310729981 2.0
  endloop
 endfacet
 facet normal 0.0 0.0 1.0
  outer loop
   vertex -0.020411121368408204 0.01916731834411621 2.0
   vertex -0.021574371337890627 0.01784787178039551 2.0
   vertex -0.022652475357055665 0.01645798683166504 2.0
  endloop
 endfacet
 facet normal 0.0 0.0 1.0
  outer loop
   vertex 0.020411121368408204 -0.01916731834411621 2.0
   vertex 0.01030748748779297 -0.026033740997314453 2.0
   vertex 0.01645798683166504 -0.022652475357055665 2.0
  endloop
 endfacet
 facet normal 0.0 0.0 1.0
  outer loop
   vertex 0.020411121368408204 -0.01916731834411621 2.0
   vertex 0.01645798683166504 -0.022652475357055665 2.0
   vertex 0.01784787178039551 -0.021574371337890627 2.0
  endloop
 endfacet
 facet normal 0.0 0.0 1.0
  outer loop
   vertex 0.020411121368408204 -0.01916731834411621 2.0
   vertex 0.01784787178039551 -0.021574371337890627 2.0
   vertex 0.01916731834411621 -0.020411121368408204 2.0
  endloop
 endfacet
 facet normal 0.0 0.0 1.0
  outer loop
   vertex 0.022652475357055665 -0.01645798683166504 2.0
   vertex 0.008652476310729981 -0.02662958335876465 2.0
   vertex 0.01030748748779297 -0.026033740997314453 2.0
  endloop
 endfacet
 facet normal 0.0 0.0 1.0
  outer loop
   vertex 0.022652475357055665 -0.01645798683166504 2.0
   vertex 0.01030748748779297 -0.026033740997314453 2.0
   vertex 0.020411121368408204 -0.01916731834411621 2.0
  endloop
 endfacet
 facet normal 0.0 0.0 1.0
  outer loop
   vertex 0.022652475357055665 -0.01645798683166504 2.0
   vertex 0.020411121368408204 -0.01916731834411621 2.0
   vertex 0.021574371337890627 -0.01784787178039551 2.0
  endloop
 endfacet
 facet normal 0.0 0.0 1.0
  outer loop
   vertex -0.01645798683166504 0.022652475357055665 2.0
   vertex -0.01784787178039551 0.021574371337890627 2.0
   vertex -0.01916731834411621 0.020411121368408204 2.0
  endloop
 endfacet
 facet normal 0.0 0.0 1.0
  outer loop
   vertex -0.01645798683166504 0.022652475357055665 2.0
   vertex -0.01916731834411621 0.020411121368408204 2.0
   vertex -0.020411121368408204 0.01916731834411621 2.0
  endloop
 endfacet
 facet normal 0.0 0.0 1.0
  outer loop
   vertex -0.01645798683166504 0.022652475357055665 2.0
   vertex -0.022652475357055665 0.01645798683166504 2.0
   vertex -0.02662958335876465 0.008652476310729981 2.0
  endloop
 endfacet
 facet normal 0.0 0.0 1.0
  outer loop
   vertex -0.01645798683166504 0.022652475357055665 2.0
   vertex -0.020411121368408204 0.01916731834411621 2.0
   vertex -0.022652475357055665 0.01645798683166504 2.0
  endloop
 endfacet
 facet normal 0.0 0.0 1.0
  outer loop
   vertex 0.023641181945800782 -0.015003149986267091 2.0
   vertex 0.008652476310729981 -0.02662958335876465 2.0
   vertex 0.022652475357055665 -0.01645798683166504 2.0
  endloop
 endfacet
 facet normal 0.0 0.0 1.0
  outer loop
   vertex -0.015003149986267091 0.023641181945800782 2.0
   vertex -0.01645798683166504 0.022652475357055665 2.0
   vertex -0.02662958335876465 0.008652476310729981 2.0
  endloop
 endfacet
 facet normal 0.0 0.0 1.0
  outer loop
   vertex 0.024536586761474608 -0.013489103317260743 2.0
   vertex 0.008652476310729981 -0.02662958335876465 2.0
   vertex 0.023641181945800782 -0.015003149986267091 2.0
  endloop
 endfacet
 facet normal 0.0 0.0 1.0
  outer loop
   vertex 0.02533515739440918 -0.011921820640563964 2.0
   vertex 0.008652476310729981 -0.02662958335876465 2.0
   vertex 0.024536586761474608 -0.013489103317260743 2.0
  endloop
 endfacet
 facet normal 0.0 0.0 1.0
  outer loop
   vertex -0.011921820640563964 0.02533515739440918 2.0
   vertex -0.013489103317260743 0.024536586761474608 2.0
   vertex -0.015003149986267091 0.023641181945800782 2.0
  endloop
 endfacet
 facet normal 0.0 0.0 1.0
  outer loop
   vertex 0.026033740997314453 -0.01030748748779297 2.0
   vertex 0.008652476310729981 -0.02662958335876465 2.0
   vertex 0.02533515739440918 -0.011921820640563964 2.0
  endloop
 endfacet
 facet normal 0.0 0.0 1.0
  outer loop
   vertex -0.01030748748779297 0.026033740997314453 2.0
   vertex -0.011921820640563964 0.02533515739440918 2.0
   vertex -0.015003149986267091 0.023641181945800782 2.0
  endloop
 endfacet
 facet normal 0.0 0.0 1.0
  outer loop
   vertex -0.008652476310729981 0.02662958335876465 2.0
   vertex -0.01030748748779297 0.026033740997314453 2.0
   vertex -0.015003149986267091 0.023641181945800782 2.0
  endloop
 endfacet
 facet normal 0.0 0.0 1.0
  outer loop
   vertex 0.027120328903198244 -0.006963316917419434 2.0
   vertex 0.008652476310729981 -0.02662958335876465 2.0
   vertex 0.026033740997314453 -0.01030748748779297 2.0
  endloop
 endfacet
 facet normal 0.0 0.0 1.0
  outer loop
   vertex 0.027120328903198244 -0.006963316917419434 2.0
   vertex -0.01916731834411621 -0.020411121368408204 2.0
   vertex -0.0017581346035003662 -0.027944747924804687 2.0
  endloop
 endfacet
 facet normal 0.0 0.0 1.0
  outer loop
   vertex 0.027120328903198244 -0.006963316917419434 2.0
   vertex -0.0017581346035003662 -0.027944747924804687 2.0
   vertex 0.008652476310729981 -0.02662958335876465 2.0
  endloop
 endfacet
 facet normal 0.0 0.0 1.0
  outer loop
   vertex 0.027120328903198244 -0.006963316917419434 2.0
   vertex 0.026033740997314453 -0.01030748748779297 2.0
   vertex 0.02662958335876465 -0.008652476310729981 2.0
  endloop
 endfacet
 facet normal 0.0 0.0 1.0
  outer loop
   vertex -0.006963316917419434 0.027120328903198244 2.0
   vertex -0.008652476310729981 0.02662958335876465 2.0
   vertex -0.015003149986267091 0.023641181945800782 2.0
  endloop
 endfacet
 facet normal 0.0 0.0 1.0
  outer loop
   vertex -0.005246676921844482 0.027504043579101564 2.0
   vertex -0.015003149986267091 0.023641181945800782 2.0
   vertex -0.02662958335876465 0.008652476310729981 2.0
  endloop
 endfacet
 facet normal 0.0 0.0 1.0
  outer loop
   vertex -0.005246676921844482 0.027504043579101564 2.0
   vertex -0.006963316917419434 0.027120328903198244 2.0
   vertex -0.015003149986267091 0.023641181945800782 2.0
  endloop
 endfacet
 facet normal 0.0 0.0 1.0
  outer loop
   vertex -0.005246676921844482 0.027504043579101564 2.0
   vertex -0.027779211044311525 0.0035093305110931398 2.0
   vertex -0.01916731834411621 -0.020411121368408204 2.0
  endloop
 endfacet
 facet normal 0.0 0.0 1.0
  outer loop
   vertex -0.005246676921844482 0.027504043579101564 2.0
   vertex -0.01916731834411621 -0.020411121368408204 2.0
   vertex 0.027120328903198244 -0.006963316917419434 2.0
  endloop
 endfacet
 facet normal 0.0 0.0 1.0
  outer loop
   vertex -0.005246676921844482 0.027504043579101564 2.0
   vertex -0.02662958335876465 0.008652476310729981 2.0
   vertex -0.027779211044311525 0.0035093305110931398 2.0
  endloop
 endfacet
 facet normal 0.0 0.0 1.0
  outer loop
   vertex 0.027779211044311525 -0.0035093305110931398 2.0
   vertex 0.027120328903198244 -0.006963316917419434 2.0
   vertex 0.027504043579101564 -0.005246676921844482 2.0
  endloop
 endfacet
 facet normal 0.0 0.0 1.0
  outer loop
   vertex 0.027944747924804687 -0.0017581346035003662 2.0
   vertex 0.027120328903198244 -0.006963316917419434 2.0
   vertex 0.027779211044311525 -0.0035093305110931398 2.0
  endloop
 endfacet
 facet normal 0.0 0.0 1.0
  outer loop
   vertex -1.6937242014176783e-17 0.028 2.0
   vertex -0.0017581346035003662 0.027944747924804687 2.0
   vertex -0.0035093305110931398 0.027779211044311525 2.0
  endloop
 endfacet
 facet normal 0.0 0.0 1.0
  outer loop
   vertex 0.0017581346035003662 0.027944747924804687 2.0
   vertex -0.0035093305110931398 0.027779211044311525 2.0
   vertex -0.005246676921844482 0.027504043579101564 2.0
  endloop
 endfacet
 facet normal 0.0 0.0 1.0
  outer loop
   vertex 0.0017581346035003662 0.027944747924804687 2.0
   vertex -1.6937242014176783e-17 0.028 2.0
   vertex -0.0035093305110931398 0.027779211044311525 2.0
  endloop
 endfacet
 facet normal 0.0 0.0 1.0
  outer loop
   vertex 0.027944747924804687 0.0017581346035003662 2.0
   vertex 0.027944747924804687 -0.0017581346035003662 2.0
   vertex 0.028 -7.000000131271574e-18 2.0
  endloop
 endfacet
 facet normal 0.0 0.0 1.0
  outer loop
   vertex 0.027504043579101564 0.005246676921844482 2.0
   vertex 0.027944747924804687 0.0017581346035003662 2.0
   vertex 0.027779211044311525 0.0035093305110931398 2.0
  endloop
 endfacet
 facet normal 0.0 0.0 1.0
  outer loop
   vertex 0.027504043579101564 0.005246676921844482 2.0
   vertex 0.027944747924804687 -0.0017581346035003662 2.0
   vertex 0.027944747924804687 0.0017581346035003662 2.0
  endloop
 endfacet
 facet normal 0.0 0.0 1.0
  outer loop
   vertex 0.005246676921844482 0.027504043579101564 2.0
   vertex 0.0035093305110931398 0.027779211044311525 2.0
   vertex 0.0017581346035003662 0.027944747924804687 2.0
  endloop
 endfacet
 facet normal 0.0 0.0 1.0
  outer loop
   vertex 0.027120328903198244 0.006963316917419434 2.0
   vertex 0.027120328903198244 -0.006963316917419434 2.0
   vertex 0.027944747924804687 -0.0017581346035003662 2.0
  endloop
 endfacet
 facet normal 0.0 0.0 1.0
  outer loop
   vertex 0.027120328903198244 0.006963316917419434 2.0
   vertex 0.027944747924804687 -0.0017581346035003662 2.0
   vertex 0.027504043579101564 0.005246676921844482 2.0
  endloop
 endfacet
 facet normal 0.0 0.0 1.0
  outer loop
   vertex 0.006963316917419434 0.027120328903198244 2.0
   vertex -0.005246676921844482 0.027504043579101564 2.0
   vertex 0.027120328903198244 -0.006963316917419434 2.0
  endloop
 endfacet
 facet normal 0.0 0.0 1.0
  outer loop
   vertex 0.006963316917419434 0.027120328903198244 2.0
   vertex 0.0017581346035003662 0.027944747924804687 2.0
   vertex -0.005246676921844482 0.027504043579101564 2.0
  endloop
 endfacet
 facet normal 0.0 0.0 1.0
  outer loop
   vertex 0.006963316917419434 0.027120328903198244 2.0
   vertex 0.005246676921844482 0.027504043579101564 2.0
   vertex 0.0017581346035003662 0.027944747924804687 2.0
  endloop
 endfacet
 facet normal 0.0 0.0 1.0
  outer loop
   vertex 0.026033740997314453 0.01030748748779297 2.0
   vertex 0.027120328903198244 0.006963316917419434 2.0
   vertex 0.02662958335876465 0.008652476310729981 2.0
  endloop
 endfacet
 facet normal 0.0 0.0 1.0
  outer loop
   vertex 0.011921820640563964 0.02533515739440918 2.0
   vertex 0.01030748748779297 0.026033740997314453 2.0
   vertex 0.008652476310729981 0.02662958335876465 2.0
  endloop
 endfacet
 facet normal 0.0 0.0 1.0
  outer loop
   vertex 0.024536586761474608 0.013489103317260743 2.0
   vertex 0.026033740997314453 0.01030748748779297 2.0
   vertex 0.02533515739440918 0.011921820640563964 2.0
  endloop
 endfacet
 facet normal 0.0 0.0 1.0
  outer loop
   vertex 0.024536586761474608 0.013489103317260743 2.0
   vertex 0.027120328903198244 0.006963316917419434 2.0
   vertex 0.026033740997314453 0.01030748748779297 2.0
  endloop
 endfacet
 facet normal 0.0 0.0 1.0
  outer loop
   vertex 0.013489103317260743 0.024536586761474608 2.0
   vertex 0.008652476310729981 0.02662958335876465 2.0
   vertex 0.006963316917419434 0.027120328903198244 2.0
  endloop
 endfacet
 facet normal 0.0 0.0 1.0
  outer loop
   vertex 0.013489103317260743 0.024536586761474608 2.0
   vertex 0.011921820640563964 0.02533515739440918 2.0
   vertex 0.008652476310729981 0.02662958335876465 2.0
  endloop
 endfacet
 facet normal 0.0 0.0 1.0
  outer loop
   vertex 0.015003149986267091 0.023641181945800782 2.0
   vertex 0.013489103317260743 0.024536586761474608 2.0
   vertex 0.006963316917419434 0.027120328903198244 2.0
  endloop
 endfacet
 facet normal 0.0 0.0 1.0
  outer loop
   vertex 0.01645798683166504 0.022652475357055665 2.0
   vertex 0.027120328903198244 -0.006963316917419434 2.0
   vertex 0.027120328903198244 0.006963316917419434 2.0
  endloop
 endfacet
 facet normal 0.0 0.0 1.0
  outer loop
   vertex 0.01645798683166504 0.022652475357055665 2.0
   vertex 0.006963316917419434 0.027120328903198244 2.0
   vertex 0.027120328903198244 -0.006963316917419434 2.0
  endloop
 endfacet
 facet normal 0.0 0.0 1.0
  outer loop
   vertex 0.01645798683166504 0.022652475357055665 2.0
   vertex 0.015003149986267091 0.023641181945800782 2.0
   vertex 0.006963316917419434 0.027120328903198244 2.0
  endloop
 endfacet
 facet normal 0.0 0.0 1.0
  outer loop
   vertex 0.022652475357055665 0.01645798683166504 2.0
   vertex 0.024536586761474608 0.013489103317260743 2.0
   vertex 0.023641181945800782 0.015003149986267091 2.0
  endloop
 endfacet
 facet normal 0.0 0.0 1.0
  outer loop
   vertex 0.022652475357055665 0.01645798683166504 2.0
   vertex 0.027120328903198244 0.006963316917419434 2.0
   vertex 0.024536586761474608 0.013489103317260743 2.0
  endloop
 endfacet
 facet normal 0.0 0.0 1.0
  outer loop
   vertex 0.020411121368408204 0.01916731834411621 2.0
   vertex 0.022652475357055665 0.01645798683166504 2.0
   vertex 0.021574371337890627 0.01784787178039551 2.0
  endloop
 endfacet
 facet normal 0.0 0.0 1.0
  outer loop
   vertex 0.020411121368408204 0.01916731834411621 2.0
   vertex 0.027120328903198244 0.006963316917419434 2.0
   vertex 0.022652475357055665 0.01645798683166504 2.0
  endloop
 endfacet
 facet normal 0.0 0.0 1.0
  outer loop
   vertex 0.01916731834411621 0.020411121368408204 2.0
   vertex 0.01784787178039551 0.021574371337890627 2.0
   vertex 0.01645798683166504 0.022652475357055665 2.0
  endloop
 endfacet
 facet normal 0.0 0.0 1.0
  outer loop
   vertex 0.01916731834411621 0.020411121368408204 2.0
   vertex 0.01645798683166504 0.022652475357055665 2.0
   vertex 0.027120328903198244 0.006963316917419434 2.0
  endloop
 endfacet
 facet normal 0.0 0.0 1.0
  outer loop
   vertex 0.01916731834411621 0.020411121368408204 2.0
   vertex 0.027120328903198244 0.006963316917419434 2.0
   vertex 0.020411121368408204 0.01916731834411621 2.0
  endloop
 endfacet
endsolid patch_0_0
