solid patch_3_0
 facet normal 0.0 -1.0 0.0
  outer loop
   vertex -0.0034062342643737796 -0.03 1.1927613525390626
   vertex -0.00509939193725586 -0.03 1.1938359375
   vertex -0.0042866144180297855 -0.03 1.193245361328125
  endloop
 endfacet
 facet normal 0.0 -1.0 0.0
  outer loop
   vertex -0.00774866533279419 -0.03 1.198010498046875
   vertex -0.007438211917877197 -0.03 1.1970550537109375
   vertex -0.007010453224182129 -0.03 1.19614599609375
  endloop
 endfacet
 facet normal 0.0 -1.0 0.0
  outer loop
   vertex -0.00774866533279419 -0.03 1.198010498046875
   vertex -0.007010453224182129 -0.03 1.19614599609375
   vertex -0.0064721360206604 -0.03 1.1952977294921876
  endloop
 endfacet
 facet normal 0.0 -1.0 0.0
  outer loop
   vertex -0.00774866533279419 -0.03 1.198010498046875
   vertex -0.0064721360206604 -0.03 1.1952977294921876
   vertex -0.005831748962402344 -0.03 1.194523681640625
  endloop
 endfacet
 facet normal 0.0 -1.0 0.0
  outer loop
   vertex -0.00774866533279419 -0.03 1.198010498046875
   vertex -0.005831748962402344 -0.03 1.194523681640625
   vertex -0.00509939193725586 -0.03 1.1938359375
  endloop
 endfacet
 facet normal 0.0 -1.0 0.0
  outer loop
   vertex -0.00774866533279419 -0.03 1.198010498046875
   vertex -0.00509939193725586 -0.03 1.1938359375
   vertex -0.0034062342643737796 -0.03 1.1927613525390626
  endloop
 endfacet
 facet normal 0.0 -1.0 0.0
  outer loop
   vertex 0.0005023241639137268 -0.03 1.1920157470703125
   vertex -0.0024721360206604003 -0.03 1.1923916015625
   vertex -0.001499050498008728 -0.03 1.1921417236328125
  endloop
 endfacet
 facet normal 0.0 -1.0 0.0
  outer loop
   vertex 0.0005023241639137268 -0.03 1.1920157470703125
   vertex -0.001499050498008728 -0.03 1.1921417236328125
   vertex -0.0005023241639137268 -0.03 1.1920157470703125
  endloop
 endfacet
 facet normal 0.0 -1.0 0.0
  outer loop
   vertex 0.001499050498008728 -0.03 1.1921417236328125
   vertex -0.0034062342643737796 -0.03 1.1927613525390626
   vertex -0.0024721360206604003 -0.03 1.1923916015625
  endloop
 endfacet
 facet normal -0.0 -1.0 0.0
  outer loop
   vertex 0.001499050498008728 -0.03 1.1921417236328125
   vertex -0.0024721360206604003 -0.03 1.1923916015625
   vertex 0.0005023241639137268 -0.03 1.1920157470703125
  endloop
 endfacet
 facet normal 0.0 -1.0 0.0
  outer loop
   vertex 0.0034062342643737796 -0.03 1.1927613525390626
   vertex 0.001499050498008728 -0.03 1.1921417236328125
   vertex 0.0024721360206604003 -0.03 1.1923916015625
  endloop
 endfacet
 facet normal 0.0 -1.0 0.0
  outer loop
   vertex 0.0042866144180297855 -0.03 1.193245361328125
   vertex -0.0034062342643737796 -0.03 1.1927613525390626
   vertex 0.001499050498008728 -0.03 1.1921417236328125
  endloop
 endfacet
 facet normal 0.0 -1.0 0.0
  outer loop
   vertex 0.0042866144180297855 -0.03 1.193245361328125
   vertex 0.001499050498008728 -0.03 1.1921417236328125
   vertex 0.0034062342643737796 -0.03 1.1927613525390626
  endloop
 endfacet
 facet normal 0.0 -1.0 0.0
  outer loop
   vertex -0.005831748962402344 -0.03 1.205476318359375
   vertex -0.0064721360206604 -0.03 1.2047022705078125
   vertex -0.007010453224182129 -0.03 1.20385400390625
  endloop
 endfacet
 facet normal 0.0 -1.0 0.0
  outer loop
   vertex 0.005831748962402344 -0.03 1.194523681640625
   vertex 0.0042866144180297855 -0.03 1.193245361328125
   vertex 0.00509939193725586 -0.03 1.1938359375
  endloop
 endfacet
 facet normal 0.0 -1.0 0.0
  outer loop
   vertex -0.0034062342643737796 -0.03 1.2072386474609376
   vertex -0.0042866144180297855 -0.03 1.206754638671875
   vertex -0.00509939193725586 -0.03 1.2061640625
  endloop
 endfacet
 facet normal 0.0 -1.0 0.0
  outer loop
   vertex -0.0034062342643737796 -0.03 1.2072386474609376
   vertex -0.00509939193725586 -0.03 1.2061640625
   vertex -0.005831748962402344 -0.03 1.205476318359375
  endloop
 endfacet
 facet normal 0.0 -1.0 0.0
  outer loop
   vertex 0.007438211917877197 -0.03 1.1970550537109375
   vertex 0.005831748962402344 -0.03 1.194523681640625
   vertex 0.0064721360206604 -0.03 1.1952977294921876
  endloop
 endfacet
 facet normal 0.0 -1.0 0.0
  outer loop
   vertex 0.007438211917877197 -0.03 1.1970550537109375
   vertex 0.0064721360206604 -0.03 1.1952977294921876
   vertex 0.007010453224182129 -0.03 1.19614599609375
  endloop
 endfacet
 facet normal 0.0 -1.0 0.0
  outer loop
   vertex -0.0024721360206604003 -0.03 1.2076083984375001
   vertex -0.0034062342643737796 -0.03 1.2072386474609376
   vertex -0.005831748962402344 -0.03 1.205476318359375
  endloop
 endfacet
 facet normal 0.0 -1.0 0.0
  outer loop
   vertex -0.0024721360206604003 -0.03 1.2076083984375001
   vertex -0.005831748962402344 -0.03 1.205476318359375
   vertex -0.007010453224182129 -0.03 1.20385400390625
  endloop
 endfacet
 facet normal 0.0 -1.0 0.0
  outer loop
   vertex 0.00774866533279419 -0.03 1.198010498046875
   vertex 0.0042866144180297855 -0.03 1.193245361328125
   vertex 0.005831748962402344 -0.03 1.194523681640625
  endloop
 endfacet
 facet normal 0.0 -1.0 0.0
  outer loop
   vertex 0.00774866533279419 -0.03 1.198010498046875
   vertex 0.005831748962402344 -0.03 1.194523681640625
   vertex 0.007438211917877197 -0.03 1.1970550537109375
  endloop
 endfacet
 facet normal 0.0 -1.0 0.0
  outer loop
   vertex 0.007936917781829833 -0.03 1.198997314453125
   vertex 0.0042866144180297855 -0.03 1.193245361328125
   vertex 0.00774866533279419 -0.03 1.198010498046875
  endloop
 endfacet
 facet normal -0.0 -1.0 0.0
  outer loop
   vertex 0.007936917781829833 -0.03 1.198997314453125
   vertex -0.007936917781829833 -0.03 1.198997314453125
   vertex -0.00774866533279419 -0.03 1.198010498046875
  endloop
 endfacet
 facet normal 0.0 -1.0 0.0
  outer loop
   vertex 0.007936917781829833 -0.03 1.198997314453125
   vertex -0.00774866533279419 -0.03 1.198010498046875
   vertex -0.0034062342643737796 -0.03 1.1927613525390626
  endloop
 endfacet
 facet normal 0.0 -1.0 0.0
  outer loop
   vertex 0.007936917781829833 -0.03 1.198997314453125
   vertex -0.0034062342643737796 -0.03 1.1927613525390626
   vertex 0.0042866144180297855 -0.03 1.193245361328125
  endloop
 endfacet
 facet normal 0.0 -1.0 0.0
  outer loop
   vertex -0.0005023241639137268 -0.03 1.2079842529296876
   vertex -0.001499050498008728 -0.03 1.2078582763671875
   vertex -0.0024721360206604003 -0.03 1.2076083984375001
  endloop
 endfacet
 facet normal 0.0 -1.0 0.0
  outer loop
   vertex 0.008 -0.03 1.2
   vertex -0.007936917781829833 -0.03 1.198997314453125
   vertex 0.007936917781829833 -0.03 1.198997314453125
  endloop
 endfacet
 facet normal 0.0 -1.0 0.0
  outer loop
   vertex 0.008 -0.03 1.2
   vertex -0.007010453224182129 -0.03 1.20385400390625
   vertex -0.007438211917877197 -0.03 1.2029449462890625
  endloop
 endfacet
 facet normal 0.0 -1.0 0.0
  outer loop
   vertex 0.008 -0.03 1.2
   vertex -0.007438211917877197 -0.03 1.2029449462890625
   vertex -0.00774866533279419 -0.03 1.201989501953125
  endloop
 endfacet
 facet normal 0.0 -1.0 0.0
  outer loop
   vertex 0.008 -0.03 1.2
   vertex -0.00774866533279419 -0.03 1.201989501953125
   vertex -0.007936917781829833 -0.03 1.201002685546875
  endloop
 endfacet
 facet normal 0.0 -1.0 0.0
  outer loop
   vertex 0.008 -0.03 1.2
   vertex -0.007936917781829833 -0.03 1.201002685546875
   vertex -0.008 -0.03 1.2
  endloop
 endfacet
 facet normal -0.0 -1.0 0.0
  outer loop
   vertex 0.008 -0.03 1.2
   vertex -0.008 -0.03 1.2
   vertex -0.007936917781829833 -0.03 1.198997314453125
  endloop
 endfacet
 facet normal 0.0 -1.0 0.0
  outer loop
   vertex 0.001499050498008728 -0.03 1.2078582763671875
   vertex 0.0005023241639137268 -0.03 1.2079842529296876
   vertex -0.0005023241639137268 -0.03 1.2079842529296876
  endloop
 endfacet
 facet normal 0.0 -1.0 0.0
  outer loop
   vertex 0.00774866533279419 -0.03 1.201989501953125
   vertex 0.008 -0.03 1.2
   vertex 0.007936917781829833 -0.03 1.201002685546875
  endloop
 endfacet
 facet normal 0.0 -1.0 0.0
  outer loop
   vertex 0.0024721360206604003 -0.03 1.2076083984375001
   vertex -0.0005023241639137268 -0.03 1.2079842529296876
   vertex -0.0024721360206604003 -0.03 1.2076083984375001
  endloop
 endfacet
 facet normal 0.0 -1.0 0.0
  outer loop
   vertex 0.0024721360206604003 -0.03 1.2076083984375001
   vertex 0.001499050498008728 -0.03 1.2078582763671875
   vertex -0.0005023241639137268 -0.03 1.2079842529296876
  endloop
 endfacet
 facet normal 0.0 -1.0 0.0
  outer loop
   vertex 0.0034062342643737796 -0.03 1.2072386474609376
   vertex 0.0024721360206604003 -0.03 1.2076083984375001
   vertex -0.0024721360206604003 -0.03 1.2076083984375001
  endloop
 endfacet
 facet normal 0.0 -1.0 0.0
  outer loop
   vertex 0.007010453224182129 -0.03 1.20385400390625
   vertex 0.00774866533279419 -0.03 1.201989501953125
   vertex 0.007438211917877197 -0.03 1.2029449462890625
  endloop
 endfacet
 facet normal 0.0 -1.0 0.0
  outer loop
   vertex 0.007010453224182129 -0.03 1.20385400390625
   vertex 0.008 -0.03 1.2
   vertex 0.00774866533279419 -0.03 1.201989501953125
  endloop
 endfacet
 facet normal 0.0 -1.0 0.0
  outer loop
   vertex 0.00509939193725586 -0.03 1.2061640625
   vertex 0.0042866144180297855 -0.03 1.206754638671875
   vertex 0.0034062342643737796 -0.03 1.2072386474609376
  endloop
 endfacet
 facet normal 0.0 -1.0 0.0
  outer loop
   vertex 0.00509939193725586 -0.03 1.2061640625
   vertex 0.0034062342643737796 -0.03 1.2072386474609376
   vertex -0.0024721360206604003 -0.03 1.2076083984375001
  endloop
 endfacet
 facet normal 0.0 -1.0 -0.0
  outer loop
   vertex 0.005831748962402344 -0.03 1.205476318359375
   vertex -0.007010453224182129 -0.03 1.20385400390625
   vertex 0.008 -0.03 1.2
  endloop
 endfacet
 facet normal 0.0 -1.0 0.0
  outer loop
   vertex 0.005831748962402344 -0.03 1.205476318359375
   vertex 0.007010453224182129 -0.03 1.20385400390625
   vertex 0.0064721360206604 -0.03 1.2047022705078125
  endloop
 endfacet
 facet normal 0.0 -1.0 0.0
  outer loop
   vertex 0.005831748962402344 -0.03 1.205476318359375
   vertex 0.008 -0.03 1.2
   vertex 0.007010453224182129 -0.03 1.20385400390625
  endloop
 endfacet
 facet normal 0.0 -1.0 0.0
  outer loop
   vertex 0.005831748962402344 -0.03 1.205476318359375
   vertex 0.00509939193725586 -0.03 1.2061640625
   vertex -0.0024721360206604003 -0.03 1.2076083984375001
  endloop
 endfacet
 facet normal -0.0 -1.0 0.0
  outer loop
   vertex 0.005831748962402344 -0.03 1.205476318359375
   vertex -0.0024721360206604003 -0.03 1.2076083984375001
   vertex -0.007010453224182129 -0.03 1.20385400390625
  endloop
 endfacet
 facet normal 0.0 -1.0 0.0
  outer loop
   vertex -0.0034062342643737796 -0.03 1.7927613525390624
   vertex -0.00509939193725586 -0.03 1.7938359375000001
   vertex -0.0042866144180297855 -0.03 1.793245361328125
  endloop
 endfacet
 facet normal 0.0 -1.0 0.0
  outer loop
   vertex -0.00774866533279419 -0.03 1.798010498046875
   vertex -0.007438211917877197 -0.03 1.7970550537109375
   vertex -0.007010453224182129 -0.03 1.79614599609375
  endloop
 endfacet
 facet normal 0.0 -1.0 0.0
  outer loop
   vertex -0.00774866533279419 -0.03 1.798010498046875
   vertex -0.007010453224182129 -0.03 1.79614599609375
   vertex -0.0064721360206604 -0.03 1.7952977294921875
  endloop
 endfacet
 facet normal 0.0 -1.0 0.0
  outer loop
   vertex -0.00774866533279419 -0.03 1.798010498046875
   vertex -0.0064721360206604 -0.03 1.7952977294921875
   vertex -0.005831748962402344 -0.03 1.7945236816406251
  endloop
 endfacet
 facet normal 0.0 -1.0 0.0
  outer loop
   vertex -0.00774866533279419 -0.03 1.798010498046875
   vertex -0.005831748962402344 -0.03 1.7945236816406251
   vertex -0.00509939193725586 -0.03 1.7938359375000001
  endloop
 endfacet
 facet normal 0.0 -1.0 0.0
  outer loop
   vertex -0.00774866533279419 -0.03 1.798010498046875
   vertex -0.00509939193725586 -0.03 1.7938359375000001
   vertex -0.0034062342643737796 -0.03 1.7927613525390624
  endloop
 endfacet
 facet normal 0.0 -1.0 0.0
  outer loop
   vertex 0.0005023241639137268 -0.03 1.7920157470703126
   vertex -0.0024721360206604003 -0.03 1.7923916015625
   vertex -0.001499050498008728 -0.03 1.7921417236328125
  endloop
 endfacet
 facet normal 0.0 -1.0 0.0
  outer loop
   vertex 0.0005023241639137268 -0.03 1.7920157470703126
   vertex -0.001499050498008728 -0.03 1.7921417236328125
   vertex -0.0005023241639137268 -0.03 1.7920157470703126
  endloop
 endfacet
 facet normal 0.0 -1.0 0.0
  outer loop
   vertex 0.001499050498008728 -0.03 1.7921417236328125
   vertex -0.0034062342643737796 -0.03 1.7927613525390624
   vertex -0.0024721360206604003 -0.03 1.7923916015625
  endloop
 endfacet
 facet normal -0.0 -1.0 0.0
  outer loop
   vertex 0.001499050498008728 -0.03 1.7921417236328125
   vertex -0.0024721360206604003 -0.03 1.7923916015625
   vertex 0.0005023241639137268 -0.03 1.7920157470703126
  endloop
 endfacet
 facet normal 0.0 -1.0 0.0
  outer loop
   vertex 0.0034062342643737796 -0.03 1.7927613525390624
   vertex 0.001499050498008728 -0.03 1.7921417236328125
   vertex 0.0024721360206604003 -0.03 1.7923916015625
  endloop
 endfacet
 facet normal 0.0 -1.0 0.0
  outer loop
   vertex 0.0042866144180297855 -0.03 1.793245361328125
   vertex -0.0034062342643737796 -0.03 1.7927613525390624
   vertex 0.001499050498008728 -0.03 1.7921417236328125
  endloop
 endfacet
 facet normal 0.0 -1.0 0.0
  outer loop
   vertex 0.0042866144180297855 -0.03 1.793245361328125
   vertex 0.001499050498008728 -0.03 1.7921417236328125
   vertex 0.0034062342643737796 -0.03 1.7927613525390624
  endloop
 endfacet
 facet normal 0.0 -1.0 0.0
  outer loop
   vertex -0.005831748962402344 -0.03 1.805476318359375
   vertex -0.0064721360206604 -0.03 1.8047022705078126
   vertex -0.007010453224182129 -0.03 1.80385400390625
  endloop
 endfacet
 facet normal 0.0 -1.0 0.0
  outer loop
   vertex 0.005831748962402344 -0.03 1.7945236816406251
   vertex 0.0042866144180297855 -0.03 1.793245361328125
   vertex 0.00509939193725586 -0.03 1.7938359375000001
  endloop
 endfacet
 facet normal 0.0 -1.0 0.0
  outer loop
   vertex -0.0034062342643737796 -0.03 1.8072386474609374
   vertex -0.0042866144180297855 -0.03 1.8067546386718751
   vertex -0.00509939193725586 -0.03 1.8061640625
  endloop
 endfacet
 facet normal 0.0 -1.0 0.0
  outer loop
   vertex -0.0034062342643737796 -0.03 1.8072386474609374
   vertex -0.00509939193725586 -0.03 1.8061640625
   vertex -0.005831748962402344 -0.03 1.805476318359375
  endloop
 endfacet
 facet normal 0.0 -1.0 0.0
  outer loop
   vertex 0.007438211917877197 -0.03 1.7970550537109375
   vertex 0.005831748962402344 -0.03 1.7945236816406251
   vertex 0.0064721360206604 -0.03 1.7952977294921875
  endloop
 endfacet
 facet normal 0.0 -1.0 0.0
  outer loop
   vertex 0.007438211917877197 -0.03 1.7970550537109375
   vertex 0.0064721360206604 -0.03 1.7952977294921875
   vertex 0.007010453224182129 -0.03 1.79614599609375
  endloop
 endfacet
 facet normal 0.0 -1.0 0.0
  outer loop
   vertex -0.0024721360206604003 -0.03 1.8076083984375
   vertex -0.0034062342643737796 -0.03 1.8072386474609374
   vertex -0.005831748962402344 -0.03 1.805476318359375
  endloop
 endfacet
 facet normal 0.0 -1.0 0.0
  outer loop
   vertex -0.0024721360206604003 -0.03 1.8076083984375
   vertex -0.005831748962402344 -0.03 1.805476318359375
   vertex -0.007010453224182129 -0.03 1.80385400390625
  endloop
 endfacet
 facet normal 0.0 -1.0 0.0
  outer loop
   vertex 0.00774866533279419 -0.03 1.798010498046875
   vertex 0.0042866144180297855 -0.03 1.793245361328125
   vertex 0.005831748962402344 -0.03 1.7945236816406251
  endloop
 endfacet
 facet normal 0.0 -1.0 0.0
  outer loop
   vertex 0.00774866533279419 -0.03 1.798010498046875
   vertex 0.005831748962402344 -0.03 1.7945236816406251
   vertex 0.007438211917877197 -0.03 1.7970550537109375
  endloop
 endfacet
 facet normal 0.0 -1.0 0.0
  outer loop
   vertex 0.007936917781829833 -0.03 1.798997314453125
   vertex 0.0042866144180297855 -0.03 1.793245361328125
   vertex 0.00774866533279419 -0.03 1.798010498046875
  endloop
 endfacet
 facet normal -0.0 -1.0 0.0
  outer loop
   vertex 0.007936917781829833 -0.03 1.798997314453125
   vertex -0.007936917781829833 -0.03 1.798997314453125
   vertex -0.00774866533279419 -0.03 1.798010498046875
  endloop
 endfacet
 facet normal 0.0 -1.0 0.0
  outer loop
   vertex 0.007936917781829833 -0.03 1.798997314453125
   vertex -0.00774866533279419 -0.03 1.798010498046875
   vertex -0.0034062342643737796 -0.03 1.7927613525390624
  endloop
 endfacet
 facet normal 0.0 -1.0 0.0
  outer loop
   vertex 0.007936917781829833 -0.03 1.798997314453125
   vertex -0.0034062342643737796 -0.03 1.7927613525390624
   vertex 0.0042866144180297855 -0.03 1.793245361328125
  endloop
 endfacet
 facet normal 0.0 -1.0 0.0
  outer loop
   vertex -0.0005023241639137268 -0.03 1.8079842529296875
   vertex -0.001499050498008728 -0.03 1.8078582763671875
   vertex -0.0024721360206604003 -0.03 1.8076083984375
  endloop
 endfacet
 facet normal 0.0 -1.0 0.0
  outer loop
   vertex 0.008 -0.03 1.8
   vertex -0.007936917781829833 -0.03 1.798997314453125
   vertex 0.007936917781829833 -0.03 1.798997314453125
  endloop
 endfacet
 facet normal 0.0 -1.0 0.0
  outer loop
   vertex 0.008 -0.03 1.8
   vertex -0.007010453224182129 -0.03 1.80385400390625
   vertex -0.007438211917877197 -0.03 1.8029449462890625
  endloop
 endfacet
 facet normal 0.0 -1.0 0.0
  outer loop
   vertex 0.008 -0.03 1.8
   vertex -0.007438211917877197 -0.03 1.8029449462890625
   vertex -0.00774866533279419 -0.03 1.8019895019531251
  endloop
 endfacet
 facet normal 0.0 -1.0 0.0
  outer loop
   vertex 0.008 -0.03 1.8
   vertex -0.00774866533279419 -0.03 1.8019895019531251
   vertex -0.007936917781829833 -0.03 1.801002685546875
  endloop
 endfacet
 facet normal 0.0 -1.0 0.0
  outer loop
   vertex 0.008 -0.03 1.8
   vertex -0.007936917781829833 -0.03 1.801002685546875
   vertex -0.008 -0.03 1.8
  endloop
 endfacet
 facet normal -0.0 -1.0 0.0
  outer loop
   vertex 0.008 -0.03 1.8
   vertex -0.008 -0.03 1.8
   vertex -0.007936917781829833 -0.03 1.798997314453125
  endloop
 endfacet
 facet normal 0.0 -1.0 0.0
  outer loop
   vertex 0.001499050498008728 -0.03 1.8078582763671875
   vertex 0.0005023241639137268 -0.03 1.8079842529296875
   vertex -0.0005023241639137268 -0.03 1.8079842529296875
  endloop
 endfacet
 facet normal 0.0 -1.0 0.0
  outer loop
   vertex 0.00774866533279419 -0.03 1.8019895019531251
   vertex 0.008 -0.03 1.8
   vertex 0.007936917781829833 -0.03 1.801002685546875
  endloop
 endfacet
 facet normal 0.0 -1.0 0.0
  outer loop
   vertex 0.0024721360206604003 -0.03 1.8076083984375
   vertex -0.0005023241639137268 -0.03 1.8079842529296875
   vertex -0.0024721360206604003 -0.03 1.8076083984375
  endloop
 endfacet
 facet normal 0.0 -1.0 0.0
  outer loop
   vertex 0.0024721360206604003 -0.03 1.8076083984375
   vertex 0.001499050498008728 -0.03 1.8078582763671875
   vertex -0.0005023241639137268 -0.03 1.8079842529296875
  endloop
 endfacet
 facet normal 0.0 -1.0 0.0
  outer loop
   vertex 0.0034062342643737796 -0.03 1.8072386474609374
   vertex 0.0024721360206604003 -0.03 1.8076083984375
   vertex -0.0024721360206604003 -0.03 1.8076083984375
  endloop
 endfacet
 facet normal 0.0 -1.0 0.0
  outer loop
   vertex 0.007010453224182129 -0.03 1.80385400390625
   vertex 0.00774866533279419 -0.03 1.8019895019531251
   vertex 0.007438211917877197 -0.03 1.8029449462890625
  endloop
 endfacet
 facet normal 0.0 -1.0 0.0
  outer loop
   vertex 0.007010453224182129 -0.03 1.80385400390625
   vertex 0.008 -0.03 1.8
   vertex 0.00774866533279419 -0.03 1.8019895019531251
  endloop
 endfacet
 facet normal 0.0 -1.0 0.0
  outer loop
   vertex 0.00509939193725586 -0.03 1.8061640625
   vertex 0.0042866144180297855 -0.03 1.8067546386718751
   vertex 0.0034062342643737796 -0.03 1.8072386474609374
  endloop
 endfacet
 facet normal 0.0 -1.0 0.0
  outer loop
   vertex 0.00509939193725586 -0.03 1.8061640625
   vertex 0.0034062342643737796 -0.03 1.8072386474609374
   vertex -0.0024721360206604003 -0.03 1.8076083984375
  endloop
 endfacet
 facet normal 0.0 -1.0 -0.0
  outer loop
   vertex 0.005831748962402344 -0.03 1.805476318359375
   vertex -0.007010453224182129 -0.03 1.80385400390625
   vertex 0.008 -0.03 1.8
  endloop
 endfacet
 facet normal 0.0 -1.0 0.0
  outer loop
   vertex 0.005831748962402344 -0.03 1.805476318359375
   vertex 0.007010453224182129 -0.03 1.80385400390625
   vertex 0.0064721360206604 -0.03 1.8047022705078126
  endloop
 endfacet
 facet normal 0.0 -1.0 0.0
  outer loop
   vertex 0.005831748962402344 -0.03 1.805476318359375
   vertex 0.008 -0.03 1.8
   vertex 0.007010453224182129 -0.03 1.80385400390625
  endloop
 endfacet
 facet normal 0.0 -1.0 0.0
  outer loop
   vertex 0.005831748962402344 -0.03 1.805476318359375
   vertex 0.00509939193725586 -0.03 1.8061640625
   vertex -0.0024721360206604003 -0.03 1.8076083984375
  endloop
 endfacet
 facet normal -0.0 -1.0 0.0
  outer loop
   vertex 0.005831748962402344 -0.03 1.805476318359375
   vertex -0.0024721360206604003 -0.03 1.8076083984375
   vertex -0.007010453224182129 -0.03 1.80385400390625
  endloop
 endfacet
 facet normal 0.0 -1.0 0.0
  outer loop
   vertex -0.0034062342643737796 -0.03 1.4927613525390626
   vertex -0.00509939193725586 -0.03 1.4938359375
   vertex -0.0042866144180297855 -0.03 1.4932453613281251
  endloop
 endfacet
 facet normal 0.0 -1.0 0.0
  outer loop
   vertex -0.00774866533279419 -0.03 1.4980104980468751
   vertex -0.007438211917877197 -0.03 1.4970550537109375
   vertex -0.007010453224182129 -0.03 1.49614599609375
  endloop
 endfacet
 facet normal 0.0 -1.0 0.0
  outer loop
   vertex -0.00774866533279419 -0.03 1.4980104980468751
   vertex -0.007010453224182129 -0.03 1.49614599609375
   vertex -0.0064721360206604 -0.03 1.4952977294921874
  endloop
 endfacet
 facet normal 0.0 -1.0 0.0
  outer loop
   vertex -0.00774866533279419 -0.03 1.4980104980468751
   vertex -0.0064721360206604 -0.03 1.4952977294921874
   vertex -0.005831748962402344 -0.03 1.494523681640625
  endloop
 endfacet
 facet normal 0.0 -1.0 0.0
  outer loop
   vertex -0.00774866533279419 -0.03 1.4980104980468751
   vertex -0.005831748962402344 -0.03 1.494523681640625
   vertex -0.00509939193725586 -0.03 1.4938359375
  endloop
 endfacet
 facet normal 0.0 -1.0 0.0
  outer loop
   vertex -0.00774866533279419 -0.03 1.4980104980468751
   vertex -0.00509939193725586 -0.03 1.4938359375
   vertex -0.0034062342643737796 -0.03 1.4927613525390626
  endloop
 endfacet
 facet normal 0.0 -1.0 0.0
  outer loop
   vertex 0.0005023241639137268 -0.03 1.4920157470703126
   vertex -0.0024721360206604003 -0.03 1.4923916015625
   vertex -0.001499050498008728 -0.03 1.4921417236328125
  endloop
 endfacet
 facet normal 0.0 -1.0 0.0
  outer loop
   vertex 0.0005023241639137268 -0.03 1.4920157470703126
   vertex -0.001499050498008728 -0.03 1.4921417236328125
   vertex -0.0005023241639137268 -0.03 1.4920157470703126
  endloop
 endfacet
 facet normal 0.0 -1.0 0.0
  outer loop
   vertex 0.001499050498008728 -0.03 1.4921417236328125
   vertex -0.0034062342643737796 -0.03 1.4927613525390626
   vertex -0.0024721360206604003 -0.03 1.4923916015625
  endloop
 endfacet
 facet normal -0.0 -1.0 0.0
  outer loop
   vertex 0.001499050498008728 -0.03 1.4921417236328125
   vertex -0.0024721360206604003 -0.03 1.4923916015625
   vertex 0.0005023241639137268 -0.03 1.4920157470703126
  endloop
 endfacet
 facet normal 0.0 -1.0 0.0
  outer loop
   vertex 0.0034062342643737796 -0.03 1.4927613525390626
   vertex 0.001499050498008728 -0.03 1.4921417236328125
   vertex 0.0024721360206604003 -0.03 1.4923916015625
  endloop
 endfacet
 facet normal 0.0 -1.0 0.0
  outer loop
   vertex 0.0042866144180297855 -0.03 1.4932453613281251
   vertex -0.0034062342643737796 -0.03 1.4927613525390626
   vertex 0.001499050498008728 -0.03 1.4921417236328125
  endloop
 endfacet
 facet normal 0.0 -1.0 0.0
  outer loop
   vertex 0.0042866144180297855 -0.03 1.4932453613281251
   vertex 0.001499050498008728 -0.03 1.4921417236328125
   vertex 0.0034062342643737796 -0.03 1.4927613525390626
  endloop
 endfacet
 facet normal 0.0 -1.0 0.0
  outer loop
   vertex -0.005831748962402344 -0.03 1.5054763183593751
   vertex -0.0064721360206604 -0.03 1.5047022705078126
   vertex -0.007010453224182129 -0.03 1.50385400390625
  endloop
 endfacet
 facet normal 0.0 -1.0 0.0
  outer loop
   vertex 0.005831748962402344 -0.03 1.494523681640625
   vertex 0.0042866144180297855 -0.03 1.4932453613281251
   vertex 0.00509939193725586 -0.03 1.4938359375
  endloop
 endfacet
 facet normal 0.0 -1.0 0.0
  outer loop
   vertex -0.0034062342643737796 -0.03 1.5072386474609376
   vertex -0.0042866144180297855 -0.03 1.506754638671875
   vertex -0.00509939193725586 -0.03 1.5061640625000001
  endloop
 endfacet
 facet normal 0.0 -1.0 0.0
  outer loop
   vertex -0.0034062342643737796 -0.03 1.5072386474609376
   vertex -0.00509939193725586 -0.03 1.5061640625000001
   vertex -0.005831748962402344 -0.03 1.5054763183593751
  endloop
 endfacet
 facet normal 0.0 -1.0 0.0
  outer loop
   vertex 0.007438211917877197 -0.03 1.4970550537109375
   vertex 0.005831748962402344 -0.03 1.494523681640625
   vertex 0.0064721360206604 -0.03 1.4952977294921874
  endloop
 endfacet
 facet normal 0.0 -1.0 0.0
  outer loop
   vertex 0.007438211917877197 -0.03 1.4970550537109375
   vertex 0.0064721360206604 -0.03 1.4952977294921874
   vertex 0.007010453224182129 -0.03 1.49614599609375
  endloop
 endfacet
 facet normal 0.0 -1.0 0.0
  outer loop
   vertex -0.0024721360206604003 -0.03 1.5076083984375
   vertex -0.0034062342643737796 -0.03 1.5072386474609376
   vertex -0.005831748962402344 -0.03 1.5054763183593751
  endloop
 endfacet
 facet normal 0.0 -1.0 0.0
  outer loop
   vertex -0.0024721360206604003 -0.03 1.5076083984375
   vertex -0.005831748962402344 -0.03 1.5054763183593751
   vertex -0.007010453224182129 -0.03 1.50385400390625
  endloop
 endfacet
 facet normal 0.0 -1.0 0.0
  outer loop
   vertex 0.00774866533279419 -0.03 1.4980104980468751
   vertex 0.0042866144180297855 -0.03 1.4932453613281251
   vertex 0.005831748962402344 -0.03 1.494523681640625
  endloop
 endfacet
 facet normal 0.0 -1.0 0.0
  outer loop
   vertex 0.00774866533279419 -0.03 1.4980104980468751
   vertex 0.005831748962402344 -0.03 1.494523681640625
   vertex 0.007438211917877197 -0.03 1.4970550537109375
  endloop
 endfacet
 facet normal 0.0 -1.0 0.0
  outer loop
   vertex 0.007936917781829833 -0.03 1.498997314453125
   vertex 0.0042866144180297855 -0.03 1.4932453613281251
   vertex 0.00774866533279419 -0.03 1.4980104980468751
  endloop
 endfacet
 facet normal -0.0 -1.0 0.0
  outer loop
   vertex 0.007936917781829833 -0.03 1.498997314453125
   vertex -0.007936917781829833 -0.03 1.498997314453125
   vertex -0.00774866533279419 -0.03 1.4980104980468751
  endloop
 endfacet
 facet normal 0.0 -1.0 0.0
  outer loop
   vertex 0.007936917781829833 -0.03 1.498997314453125
   vertex -0.00774866533279419 -0.03 1.4980104980468751
   vertex -0.0034062342643737796 -0.03 1.4927613525390626
  endloop
 endfacet
 facet normal 0.0 -1.0 0.0
  outer loop
   vertex 0.007936917781829833 -0.03 1.498997314453125
   vertex -0.0034062342643737796 -0.03 1.4927613525390626
   vertex 0.0042866144180297855 -0.03 1.4932453613281251
  endloop
 endfacet
 facet normal 0.0 -1.0 0.0
  outer loop
   vertex -0.0005023241639137268 -0.03 1.5079842529296876
   vertex -0.001499050498008728 -0.03 1.5078582763671875
   vertex -0.0024721360206604003 -0.03 1.5076083984375
  endloop
 endfacet
 facet normal 0.0 -1.0 0.0
  outer loop
   vertex 0.008 -0.03 1.5
   vertex -0.007936917781829833 -0.03 1.498997314453125
   vertex 0.007936917781829833 -0.03 1.498997314453125
  endloop
 endfacet
 facet normal 0.0 -1.0 0.0
  outer loop
   vertex 0.008 -0.03 1.5
   vertex -0.007010453224182129 -0.03 1.50385400390625
   vertex -0.007438211917877197 -0.03 1.5029449462890625
  endloop
 endfacet
 facet normal 0.0 -1.0 0.0
  outer loop
   vertex 0.008 -0.03 1.5
   vertex -0.007438211917877197 -0.03 1.5029449462890625
   vertex -0.00774866533279419 -0.03 1.501989501953125
  endloop
 endfacet
 facet normal 0.0 -1.0 0.0
  outer loop
   vertex 0.008 -0.03 1.5
   vertex -0.00774866533279419 -0.03 1.501989501953125
   vertex -0.007936917781829833 -0.03 1.501002685546875
  endloop
 endfacet
 facet normal 0.0 -1.0 0.0
  outer loop
   vertex 0.008 -0.03 1.5
   vertex -0.007936917781829833 -0.03 1.501002685546875
   vertex -0.008 -0.03 1.5
  endloop
 endfacet
 facet normal -0.0 -1.0 0.0
  outer loop
   vertex 0.008 -0.03 1.5
   vertex -0.008 -0.03 1.5
   vertex -0.007936917781829833 -0.03 1.498997314453125
  endloop
 endfacet
 facet normal 0.0 -1.0 0.0
  outer loop
   vertex 0.001499050498008728 -0.03 1.5078582763671875
   vertex 0.0005023241639137268 -0.03 1.5079842529296876
   vertex -0.0005023241639137268 -0.03 1.5079842529296876
  endloop
 endfacet
 facet normal 0.0 -1.0 0.0
  outer loop
   vertex 0.00774866533279419 -0.03 1.501989501953125
   vertex 0.008 -0.03 1.5
   vertex 0.007936917781829833 -0.03 1.501002685546875
  endloop
 endfacet
 facet normal 0.0 -1.0 0.0
  outer loop
   vertex 0.0024721360206604003 -0.03 1.5076083984375
   vertex -0.0005023241639137268 -0.03 1.5079842529296876
   vertex -0.0024721360206604003 -0.03 1.5076083984375
  endloop
 endfacet
 facet normal 0.0 -1.0 0.0
  outer loop
   vertex 0.0024721360206604003 -0.03 1.5076083984375
   vertex 0.001499050498008728 -0.03 1.5078582763671875
   vertex -0.0005023241639137268 -0.03 1.5079842529296876
  endloop
 endfacet
 facet normal 0.0 -1.0 0.0
  outer loop
   vertex 0.0034062342643737796 -0.03 1.5072386474609376
   vertex 0.0024721360206604003 -0.03 1.5076083984375
   vertex -0.0024721360206604003 -0.03 1.5076083984375
  endloop
 endfacet
 facet normal 0.0 -1.0 0.0
  outer loop
   vertex 0.007010453224182129 -0.03 1.50385400390625
   vertex 0.00774866533279419 -0.03 1.501989501953125
   vertex 0.007438211917877197 -0.03 1.5029449462890625
  endloop
 endfacet
 facet normal 0.0 -1.0 0.0
  outer loop
   vertex 0.007010453224182129 -0.03 1.50385400390625
   vertex 0.008 -0.03 1.5
   vertex 0.00774866533279419 -0.03 1.501989501953125
  endloop
 endfacet
 facet normal 0.0 -1.0 0.0
  outer loop
   vertex 0.00509939193725586 -0.03 1.5061640625000001
   vertex 0.0042866144180297855 -0.03 1.506754638671875
   vertex 0.0034062342643737796 -0.03 1.5072386474609376
  endloop
 endfacet
 facet normal 0.0 -1.0 0.0
  outer loop
   vertex 0.00509939193725586 -0.03 1.5061640625000001
   vertex 0.0034062342643737796 -0.03 1.5072386474609376
   vertex -0.0024721360206604003 -0.03 1.5076083984375
  endloop
 endfacet
 facet normal 0.0 -1.0 -0.0
  outer loop
   vertex 0.005831748962402344 -0.03 1.5054763183593751
   vertex -0.007010453224182129 -0.03 1.50385400390625
   vertex 0.008 -0.03 1.5
  endloop
 endfacet
 facet normal 0.0 -1.0 0.0
  outer loop
   vertex 0.005831748962402344 -0.03 1.5054763183593751
   vertex 0.007010453224182129 -0.03 1.50385400390625
   vertex 0.0064721360206604 -0.03 1.5047022705078126
  endloop
 endfacet
 facet normal 0.0 -1.0 0.0
  outer loop
   vertex 0.005831748962402344 -0.03 1.5054763183593751
   vertex 0.008 -0.03 1.5
   vertex 0.007010453224182129 -0.03 1.50385400390625
  endloop
 endfacet
 facet normal 0.0 -1.0 0.0
  outer loop
   vertex 0.005831748962402344 -0.03 1.5054763183593751
   vertex 0.00509939193725586 -0.03 1.5061640625000001
   vertex -0.0024721360206604003 -0.03 1.5076083984375
  endloop
 endfacet
 facet normal -0.0 -1.0 0.0
  outer loop
   vertex 0.005831748962402344 -0.03 1.5054763183593751
   vertex -0.0024721360206604003 -0.03 1.5076083984375
   vertex -0.007010453224182129 -0.03 1.50385400390625
  endloop
 endfacet
 facet normal 0.0 -1.0 0.0
  outer loop
   vertex -0.0034062342643737796 -0.03 0.8927614135742188
   vertex -0.00509939193725586 -0.03 0.8938358764648437
   vertex -0.0042866144180297855 -0.03 0.893245361328125
  endloop
 endfacet
 facet normal 0.0 -1.0 0.0
  outer loop
   vertex -0.00774866533279419 -0.03 0.898010498046875
   vertex -0.007438211917877197 -0.03 0.8970549926757813
   vertex -0.007010453224182129 -0.03 0.89614599609375
  endloop
 endfacet
 facet normal 0.0 -1.0 0.0
  outer loop
   vertex -0.00774866533279419 -0.03 0.898010498046875
   vertex -0.007010453224182129 -0.03 0.89614599609375
   vertex -0.0064721360206604 -0.03 0.8952977294921876
  endloop
 endfacet
 facet normal 0.0 -1.0 0.0
  outer loop
   vertex -0.00774866533279419 -0.03 0.898010498046875
   vertex -0.0064721360206604 -0.03 0.8952977294921876
   vertex -0.005831748962402344 -0.03 0.8945236206054688
  endloop
 endfacet
 facet normal 0.0 -1.0 0.0
  outer loop
   vertex -0.00774866533279419 -0.03 0.898010498046875
   vertex -0.005831748962402344 -0.03 0.8945236206054688
   vertex -0.00509939193725586 -0.03 0.8938358764648437
  endloop
 endfacet
 facet normal 0.0 -1.0 0.0
  outer loop
   vertex -0.00774866533279419 -0.03 0.898010498046875
   vertex -0.00509939193725586 -0.03 0.8938358764648437
   vertex -0.0034062342643737796 -0.03 0.8927614135742188
  endloop
 endfacet
 facet normal 0.0 -1.0 0.0
  outer loop
   vertex 0.0005023241639137268 -0.03 0.8920158081054688
   vertex -0.0024721360206604003 -0.03 0.8923915405273438
   vertex -0.001499050498008728 -0.03 0.8921417236328125
  endloop
 endfacet
 facet normal 0.0 -1.0 0.0
  outer loop
   vertex 0.0005023241639137268 -0.03 0.8920158081054688
   vertex -0.001499050498008728 -0.03 0.8921417236328125
   vertex -0.0005023241639137268 -0.03 0.8920158081054688
  endloop
 endfacet
 facet normal 0.0 -1.0 0.0
  outer loop
   vertex 0.001499050498008728 -0.03 0.8921417236328125
   vertex -0.0034062342643737796 -0.03 0.8927614135742188
   vertex -0.0024721360206604003 -0.03 0.8923915405273438
  endloop
 endfacet
 facet normal -0.0 -1.0 0.0
  outer loop
   vertex 0.001499050498008728 -0.03 0.8921417236328125
   vertex -0.0024721360206604003 -0.03 0.8923915405273438
   vertex 0.0005023241639137268 -0.03 0.8920158081054688
  endloop
 endfacet
 facet normal 0.0 -1.0 0.0
  outer loop
   vertex 0.0034062342643737796 -0.03 0.8927614135742188
   vertex 0.001499050498008728 -0.03 0.8921417236328125
   vertex 0.0024721360206604003 -0.03 0.8923915405273438
  endloop
 endfacet
 facet normal 0.0 -1.0 0.0
  outer loop
   vertex 0.0042866144180297855 -0.03 0.893245361328125
   vertex -0.0034062342643737796 -0.03 0.8927614135742188
   vertex 0.001499050498008728 -0.03 0.8921417236328125
  endloop
 endfacet
 facet normal 0.0 -1.0 0.0
  outer loop
   vertex 0.0042866144180297855 -0.03 0.893245361328125
   vertex 0.001499050498008728 -0.03 0.8921417236328125
   vertex 0.0034062342643737796 -0.03 0.8927614135742188
  endloop
 endfacet
 facet normal 0.0 -1.0 0.0
  outer loop
   vertex -0.005831748962402344 -0.03 0.9054763793945313
   vertex -0.0064721360206604 -0.03 0.9047022705078125
   vertex -0.007010453224182129 -0.03 0.90385400390625
  endloop
 endfacet
 facet normal 0.0 -1.0 0.0
  outer loop
   vertex 0.005831748962402344 -0.03 0.8945236206054688
   vertex 0.0042866144180297855 -0.03 0.893245361328125
   vertex 0.00509939193725586 -0.03 0.8938358764648437
  endloop
 endfacet
 facet normal 0.0 -1.0 0.0
  outer loop
   vertex -0.0034062342643737796 -0.03 0.9072385864257813
   vertex -0.0042866144180297855 -0.03 0.906754638671875
   vertex -0.00509939193725586 -0.03 0.9061641235351563
  endloop
 endfacet
 facet normal 0.0 -1.0 0.0
  outer loop
   vertex -0.0034062342643737796 -0.03 0.9072385864257813
   vertex -0.00509939193725586 -0.03 0.9061641235351563
   vertex -0.005831748962402344 -0.03 0.9054763793945313
  endloop
 endfacet
 facet normal 0.0 -1.0 0.0
  outer loop
   vertex 0.007438211917877197 -0.03 0.8970549926757813
   vertex 0.005831748962402344 -0.03 0.8945236206054688
   vertex 0.0064721360206604 -0.03 0.8952977294921876
  endloop
 endfacet
 facet normal 0.0 -1.0 0.0
  outer loop
   vertex 0.007438211917877197 -0.03 0.8970549926757813
   vertex 0.0064721360206604 -0.03 0.8952977294921876
   vertex 0.007010453224182129 -0.03 0.89614599609375
  endloop
 endfacet
 facet normal 0.0 -1.0 0.0
  outer loop
   vertex -0.0024721360206604003 -0.03 0.9076084594726562
   vertex -0.0034062342643737796 -0.03 0.9072385864257813
   vertex -0.005831748962402344 -0.03 0.9054763793945313
  endloop
 endfacet
 facet normal 0.0 -1.0 0.0
  outer loop
   vertex -0.0024721360206604003 -0.03 0.9076084594726562
   vertex -0.005831748962402344 -0.03 0.9054763793945313
   vertex -0.007010453224182129 -0.03 0.90385400390625
  endloop
 endfacet
 facet normal 0.0 -1.0 0.0
  outer loop
   vertex 0.00774866533279419 -0.03 0.898010498046875
   vertex 0.0042866144180297855 -0.03 0.893245361328125
   vertex 0.005831748962402344 -0.03 0.8945236206054688
  endloop
 endfacet
 facet normal 0.0 -1.0 0.0
  outer loop
   vertex 0.00774866533279419 -0.03 0.898010498046875
   vertex 0.005831748962402344 -0.03 0.8945236206054688
   vertex 0.007438211917877197 -0.03 0.8970549926757813
  endloop
 endfacet
 facet normal 0.0 -1.0 0.0
  outer loop
   vertex 0.007936917781829833 -0.03 0.898997314453125
   vertex 0.0042866144180297855 -0.03 0.893245361328125
   vertex 0.00774866533279419 -0.03 0.898010498046875
  endloop
 endfacet
 facet normal -0.0 -1.0 0.0
  outer loop
   vertex 0.007936917781829833 -0.03 0.898997314453125
   vertex -0.007936917781829833 -0.03 0.898997314453125
   vertex -0.00774866533279419 -0.03 0.898010498046875
  endloop
 endfacet
 facet normal 0.0 -1.0 0.0
  outer loop
   vertex 0.007936917781829833 -0.03 0.898997314453125
   vertex -0.00774866533279419 -0.03 0.898010498046875
   vertex -0.0034062342643737796 -0.03 0.8927614135742188
  endloop
 endfacet
 facet normal 0.0 -1.0 0.0
  outer loop
   vertex 0.007936917781829833 -0.03 0.898997314453125
   vertex -0.0034062342643737796 -0.03 0.8927614135742188
   vertex 0.0042866144180297855 -0.03 0.893245361328125
  endloop
 endfacet
 facet normal 0.0 -1.0 0.0
  outer loop
   vertex -0.0005023241639137268 -0.03 0.9079841918945313
   vertex -0.001499050498008728 -0.03 0.9078582763671875
   vertex -0.0024721360206604003 -0.03 0.9076084594726562
  endloop
 endfacet
 facet normal 0.0 -1.0 0.0
  outer loop
   vertex 0.008 -0.03 0.9
   vertex -0.007936917781829833 -0.03 0.898997314453125
   vertex 0.007936917781829833 -0.03 0.898997314453125
  endloop
 endfacet
 facet normal 0.0 -1.0 0.0
  outer loop
   vertex 0.008 -0.03 0.9
   vertex -0.007010453224182129 -0.03 0.90385400390625
   vertex -0.007438211917877197 -0.03 0.9029450073242188
  endloop
 endfacet
 facet normal 0.0 -1.0 0.0
  outer loop
   vertex 0.008 -0.03 0.9
   vertex -0.007438211917877197 -0.03 0.9029450073242188
   vertex -0.00774866533279419 -0.03 0.901989501953125
  endloop
 endfacet
 facet normal 0.0 -1.0 0.0
  outer loop
   vertex 0.008 -0.03 0.9
   vertex -0.00774866533279419 -0.03 0.901989501953125
   vertex -0.007936917781829833 -0.03 0.901002685546875
  endloop
 endfacet
 facet normal 0.0 -1.0 0.0
  outer loop
   vertex 0.008 -0.03 0.9
   vertex -0.007936917781829833 -0.03 0.901002685546875
   vertex -0.008 -0.03 0.9
  endloop
 endfacet
 facet normal -0.0 -1.0 0.0
  outer loop
   vertex 0.008 -0.03 0.9
   vertex -0.008 -0.03 0.9
   vertex -0.007936917781829833 -0.03 0.898997314453125
  endloop
 endfacet
 facet normal 0.0 -1.0 0.0
  outer loop
   vertex 0.001499050498008728 -0.03 0.9078582763671875
   vertex 0.0005023241639137268 -0.03 0.9079841918945313
   vertex -0.0005023241639137268 -0.03 0.9079841918945313
  endloop
 endfacet
 facet normal 0.0 -1.0 0.0
  outer loop
   vertex 0.00774866533279419 -0.03 0.901989501953125
   vertex 0.008 -0.03 0.9
   vertex 0.007936917781829833 -0.03 0.901002685546875
  endloop
 endfacet
 facet normal 0.0 -1.0 0.0
  outer loop
   vertex 0.0024721360206604003 -0.03 0.9076084594726562
   vertex -0.0005023241639137268 -0.03 0.9079841918945313
   vertex -0.0024721360206604003 -0.03 0.9076084594726562
  endloop
 endfacet
 facet normal 0.0 -1.0 0.0
  outer loop
   vertex 0.0024721360206604003 -0.03 0.9076084594726562
   vertex 0.001499050498008728 -0.03 0.9078582763671875
   vertex -0.0005023241639137268 -0.03 0.9079841918945313
  endloop
 endfacet
 facet normal 0.0 -1.0 0.0
  outer loop
   vertex 0.0034062342643737796 -0.03 0.9072385864257813
   vertex 0.0024721360206604003 -0.03 0.9076084594726562
   vertex -0.0024721360206604003 -0.03 0.9076084594726562
  endloop
 endfacet
 facet normal 0.0 -1.0 0.0
  outer loop
   vertex 0.007010453224182129 -0.03 0.90385400390625
   vertex 0.00774866533279419 -0.03 0.901989501953125
   vertex 0.007438211917877197 -0.03 0.9029450073242188
  endloop
 endfacet
 facet normal 0.0 -1.0 0.0
  outer loop
   vertex 0.007010453224182129 -0.03 0.90385400390625
   vertex 0.008 -0.03 0.9
   vertex 0.00774866533279419 -0.03 0.901989501953125
  endloop
 endfacet
 facet normal 0.0 -1.0 0.0
  outer loop
   vertex 0.00509939193725586 -0.03 0.9061641235351563
   vertex 0.0042866144180297855 -0.03 0.906754638671875
   vertex 0.0034062342643737796 -0.03 0.9072385864257813
  endloop
 endfacet
 facet normal 0.0 -1.0 0.0
  outer loop
   vertex 0.00509939193725586 -0.03 0.9061641235351563
   vertex 0.0034062342643737796 -0.03 0.9072385864257813
   vertex -0.0024721360206604003 -0.03 0.9076084594726562
  endloop
 endfacet
 facet normal 0.0 -1.0 -0.0
  outer loop
   vertex 0.005831748962402344 -0.03 0.9054763793945313
   vertex -0.007010453224182129 -0.03 0.90385400390625
   vertex 0.008 -0.03 0.9
  endloop
 endfacet
 facet normal 0.0 -1.0 0.0
  outer loop
   vertex 0.005831748962402344 -0.03 0.9054763793945313
   vertex 0.007010453224182129 -0.03 0.90385400390625
   vertex 0.0064721360206604 -0.03 0.9047022705078125
  endloop
 endfacet
 facet normal 0.0 -1.0 0.0
  outer loop
   vertex 0.005831748962402344 -0.03 0.9054763793945313
   vertex 0.008 -0.03 0.9
   vertex 0.007010453224182129 -0.03 0.90385400390625
  endloop
 endfacet
 facet normal 0.0 -1.0 0.0
  outer loop
   vertex 0.005831748962402344 -0.03 0.9054763793945313
   vertex 0.00509939193725586 -0.03 0.9061641235351563
   vertex -0.0024721360206604003 -0.03 0.9076084594726562
  endloop
 endfacet
 facet normal -0.0 -1.0 0.0
  outer loop
   vertex 0.005831748962402344 -0.03 0.9054763793945313
   vertex -0.0024721360206604003 -0.03 0.9076084594726562
   vertex -0.007010453224182129 -0.03 0.90385400390625
  endloop
 endfacet
 facet normal 0.0 -1.0 0.0
  outer loop
   vertex -0.0034062342643737796 -0.03 0.5927614135742187
   vertex -0.00509939193725586 -0.03 0.5938358764648438
   vertex -0.0042866144180297855 -0.03 0.593245361328125
  endloop
 endfacet
 facet normal 0.0 -1.0 0.0
  outer loop
   vertex -0.00774866533279419 -0.03 0.598010498046875
   vertex -0.007438211917877197 -0.03 0.5970549926757812
   vertex -0.007010453224182129 -0.03 0.59614599609375
  endloop
 endfacet
 facet normal 0.0 -1.0 0.0
  outer loop
   vertex -0.00774866533279419 -0.03 0.598010498046875
   vertex -0.007010453224182129 -0.03 0.59614599609375
   vertex -0.0064721360206604 -0.03 0.5952977294921875
  endloop
 endfacet
 facet normal 0.0 -1.0 0.0
  outer loop
   vertex -0.00774866533279419 -0.03 0.598010498046875
   vertex -0.0064721360206604 -0.03 0.5952977294921875
   vertex -0.005831748962402344 -0.03 0.5945236206054688
  endloop
 endfacet
 facet normal 0.0 -1.0 0.0
  outer loop
   vertex -0.00774866533279419 -0.03 0.598010498046875
   vertex -0.005831748962402344 -0.03 0.5945236206054688
   vertex -0.00509939193725586 -0.03 0.5938358764648438
  endloop
 endfacet
 facet normal 0.0 -1.0 0.0
  outer loop
   vertex -0.00774866533279419 -0.03 0.598010498046875
   vertex -0.00509939193725586 -0.03 0.5938358764648438
   vertex -0.0034062342643737796 -0.03 0.5927614135742187
  endloop
 endfacet
 facet normal 0.0 -1.0 0.0
  outer loop
   vertex 0.0005023241639137268 -0.03 0.5920158081054687
   vertex -0.0024721360206604003 -0.03 0.5923915405273438
   vertex -0.001499050498008728 -0.03 0.5921417236328125
  endloop
 endfacet
 facet normal 0.0 -1.0 0.0
  outer loop
   vertex 0.0005023241639137268 -0.03 0.5920158081054687
   vertex -0.001499050498008728 -0.03 0.5921417236328125
   vertex -0.0005023241639137268 -0.03 0.5920158081054687
  endloop
 endfacet
 facet normal 0.0 -1.0 0.0
  outer loop
   vertex 0.001499050498008728 -0.03 0.5921417236328125
   vertex -0.0034062342643737796 -0.03 0.5927614135742187
   vertex -0.0024721360206604003 -0.03 0.5923915405273438
  endloop
 endfacet
 facet normal -0.0 -1.0 0.0
  outer loop
   vertex 0.001499050498008728 -0.03 0.5921417236328125
   vertex -0.0024721360206604003 -0.03 0.5923915405273438
   vertex 0.0005023241639137268 -0.03 0.5920158081054687
  endloop
 endfacet
 facet normal 0.0 -1.0 0.0
  outer loop
   vertex 0.0034062342643737796 -0.03 0.5927614135742187
   vertex 0.001499050498008728 -0.03 0.5921417236328125
   vertex 0.0024721360206604003 -0.03 0.5923915405273438
  endloop
 endfacet
 facet normal 0.0 -1.0 0.0
  outer loop
   vertex 0.0042866144180297855 -0.03 0.593245361328125
   vertex -0.0034062342643737796 -0.03 0.5927614135742187
   vertex 0.001499050498008728 -0.03 0.5921417236328125
  endloop
 endfacet
 facet normal 0.0 -1.0 0.0
  outer loop
   vertex 0.0042866144180297855 -0.03 0.593245361328125
   vertex 0.001499050498008728 -0.03 0.5921417236328125
   vertex 0.0034062342643737796 -0.03 0.5927614135742187
  endloop
 endfacet
 facet normal 0.0 -1.0 0.0
  outer loop
   vertex -0.005831748962402344 -0.03 0.6054763793945312
   vertex -0.0064721360206604 -0.03 0.6047022705078126
   vertex -0.007010453224182129 -0.03 0.60385400390625
  endloop
 endfacet
 facet normal 0.0 -1.0 0.0
  outer loop
   vertex 0.005831748962402344 -0.03 0.5945236206054688
   vertex 0.0042866144180297855 -0.03 0.593245361328125
   vertex 0.00509939193725586 -0.03 0.5938358764648438
  endloop
 endfacet
 facet normal 0.0 -1.0 0.0
  outer loop
   vertex -0.0034062342643737796 -0.03 0.6072385864257812
   vertex -0.0042866144180297855 -0.03 0.606754638671875
   vertex -0.00509939193725586 -0.03 0.6061641235351563
  endloop
 endfacet
 facet normal 0.0 -1.0 0.0
  outer loop
   vertex -0.0034062342643737796 -0.03 0.6072385864257812
   vertex -0.00509939193725586 -0.03 0.6061641235351563
   vertex -0.005831748962402344 -0.03 0.6054763793945312
  endloop
 endfacet
 facet normal 0.0 -1.0 0.0
  outer loop
   vertex 0.007438211917877197 -0.03 0.5970549926757812
   vertex 0.005831748962402344 -0.03 0.5945236206054688
   vertex 0.0064721360206604 -0.03 0.5952977294921875
  endloop
 endfacet
 facet normal 0.0 -1.0 0.0
  outer loop
   vertex 0.007438211917877197 -0.03 0.5970549926757812
   vertex 0.0064721360206604 -0.03 0.5952977294921875
   vertex 0.007010453224182129 -0.03 0.59614599609375
  endloop
 endfacet
 facet normal 0.0 -1.0 0.0
  outer loop
   vertex -0.0024721360206604003 -0.03 0.6076084594726563
   vertex -0.0034062342643737796 -0.03 0.6072385864257812
   vertex -0.005831748962402344 -0.03 0.6054763793945312
  endloop
 endfacet
 facet normal 0.0 -1.0 0.0
  outer loop
   vertex -0.0024721360206604003 -0.03 0.6076084594726563
   vertex -0.005831748962402344 -0.03 0.6054763793945312
   vertex -0.007010453224182129 -0.03 0.60385400390625
  endloop
 endfacet
 facet normal 0.0 -1.0 0.0
  outer loop
   vertex 0.00774866533279419 -0.03 0.598010498046875
   vertex 0.0042866144180297855 -0.03 0.593245361328125
   vertex 0.005831748962402344 -0.03 0.5945236206054688
  endloop
 endfacet
 facet normal 0.0 -1.0 0.0
  outer loop
   vertex 0.00774866533279419 -0.03 0.598010498046875
   vertex 0.005831748962402344 -0.03 0.5945236206054688
   vertex 0.007438211917877197 -0.03 0.5970549926757812
  endloop
 endfacet
 facet normal 0.0 -1.0 0.0
  outer loop
   vertex 0.007936917781829833 -0.03 0.598997314453125
   vertex 0.0042866144180297855 -0.03 0.593245361328125
   vertex 0.00774866533279419 -0.03 0.598010498046875
  endloop
 endfacet
 facet normal -0.0 -1.0 0.0
  outer loop
   vertex 0.007936917781829833 -0.03 0.598997314453125
   vertex -0.007936917781829833 -0.03 0.598997314453125
   vertex -0.00774866533279419 -0.03 0.598010498046875
  endloop
 endfacet
 facet normal 0.0 -1.0 0.0
  outer loop
   vertex 0.007936917781829833 -0.03 0.598997314453125
   vertex -0.00774866533279419 -0.03 0.598010498046875
   vertex -0.0034062342643737796 -0.03 0.5927614135742187
  endloop
 endfacet
 facet normal 0.0 -1.0 0.0
  outer loop
   vertex 0.007936917781829833 -0.03 0.598997314453125
   vertex -0.0034062342643737796 -0.03 0.5927614135742187
   vertex 0.0042866144180297855 -0.03 0.593245361328125
  endloop
 endfacet
 facet normal 0.0 -1.0 0.0
  outer loop
   vertex -0.0005023241639137268 -0.03 0.6079841918945312
   vertex -0.001499050498008728 -0.03 0.6078582763671875
   vertex -0.0024721360206604003 -0.03 0.6076084594726563
  endloop
 endfacet
 facet normal 0.0 -1.0 0.0
  outer loop
   vertex 0.008 -0.03 0.6
   vertex -0.007936917781829833 -0.03 0.598997314453125
   vertex 0.007936917781829833 -0.03 0.598997314453125
  endloop
 endfacet
 facet normal 0.0 -1.0 0.0
  outer loop
   vertex 0.008 -0.03 0.6
   vertex -0.007010453224182129 -0.03 0.60385400390625
   vertex -0.007438211917877197 -0.03 0.6029450073242187
  endloop
 endfacet
 facet normal 0.0 -1.0 0.0
  outer loop
   vertex 0.008 -0.03 0.6
   vertex -0.007438211917877197 -0.03 0.6029450073242187
   vertex -0.00774866533279419 -0.03 0.6019895019531251
  endloop
 endfacet
 facet normal 0.0 -1.0 0.0
  outer loop
   vertex 0.008 -0.03 0.6
   vertex -0.00774866533279419 -0.03 0.6019895019531251
   vertex -0.007936917781829833 -0.03 0.601002685546875
  endloop
 endfacet
 facet normal 0.0 -1.0 0.0
  outer loop
   vertex 0.008 -0.03 0.6
   vertex -0.007936917781829833 -0.03 0.601002685546875
   vertex -0.008 -0.03 0.6
  endloop
 endfacet
 facet normal -0.0 -1.0 0.0
  outer loop
   vertex 0.008 -0.03 0.6
   vertex -0.008 -0.03 0.6
   vertex -0.007936917781829833 -0.03 0.598997314453125
  endloop
 endfacet
 facet normal 0.0 -1.0 0.0
  outer loop
   vertex 0.001499050498008728 -0.03 0.6078582763671875
   vertex 0.0005023241639137268 -0.03 0.6079841918945312
   vertex -0.0005023241639137268 -0.03 0.6079841918945312
  endloop
 endfacet
 facet normal 0.0 -1.0 0.0
  outer loop
   vertex 0.00774866533279419 -0.03 0.6019895019531251
   vertex 0.008 -0.03 0.6
   vertex 0.007936917781829833 -0.03 0.601002685546875
  endloop
 endfacet
 facet normal 0.0 -1.0 0.0
  outer loop
   vertex 0.0024721360206604003 -0.03 0.6076084594726563
   vertex -0.0005023241639137268 -0.03 0.6079841918945312
   vertex -0.0024721360206604003 -0.03 0.6076084594726563
  endloop
 endfacet
 facet normal 0.0 -1.0 0.0
  outer loop
   vertex 0.0024721360206604003 -0.03 0.6076084594726563
   vertex 0.001499050498008728 -0.03 0.6078582763671875
   vertex -0.0005023241639137268 -0.03 0.6079841918945312
  endloop
 endfacet
 facet normal 0.0 -1.0 0.0
  outer loop
   vertex 0.0034062342643737796 -0.03 0.6072385864257812
   vertex 0.0024721360206604003 -0.03 0.6076084594726563
   vertex -0.0024721360206604003 -0.03 0.6076084594726563
  endloop
 endfacet
 facet normal 0.0 -1.0 0.0
  outer loop
   vertex 0.007010453224182129 -0.03 0.60385400390625
   vertex 0.00774866533279419 -0.03 0.6019895019531251
   vertex 0.007438211917877197 -0.03 0.6029450073242187
  endloop
 endfacet
 facet normal 0.0 -1.0 0.0
  outer loop
   vertex 0.007010453224182129 -0.03 0.60385400390625
   vertex 0.008 -0.03 0.6
   vertex 0.00774866533279419 -0.03 0.6019895019531251
  endloop
 endfacet
 facet normal 0.0 -1.0 0.0
  outer loop
   vertex 0.00509939193725586 -0.03 0.6061641235351563
   vertex 0.0042866144180297855 -0.03 0.606754638671875
   vertex 0.0034062342643737796 -0.03 0.6072385864257812
  endloop
 endfacet
 facet normal 0.0 -1.0 0.0
  outer loop
   vertex 0.00509939193725586 -0.03 0.6061641235351563
   vertex 0.0034062342643737796 -0.03 0.6072385864257812
   vertex -0.0024721360206604003 -0.03 0.6076084594726563
  endloop
 endfacet
 facet normal 0.0 -1.0 -0.0
  outer loop
   vertex 0.005831748962402344 -0.03 0.6054763793945312
   vertex -0.007010453224182129 -0.03 0.60385400390625
   vertex 0.008 -0.03 0.6
  endloop
 endfacet
 facet normal 0.0 -1.0 0.0
  outer loop
   vertex 0.005831748962402344 -0.03 0.6054763793945312
   vertex 0.007010453224182129 -0.03 0.60385400390625
   vertex 0.0064721360206604 -0.03 0.6047022705078126
  endloop
 endfacet
 facet normal 0.0 -1.0 0.0
  outer loop
   vertex 0.005831748962402344 -0.03 0.6054763793945312
   vertex 0.008 -0.03 0.6
   vertex 0.007010453224182129 -0.03 0.60385400390625
  endloop
 endfacet
 facet normal 0.0 -1.0 0.0
  outer loop
   vertex 0.005831748962402344 -0.03 0.6054763793945312
   vertex 0.00509939193725586 -0.03 0.6061641235351563
   vertex -0.0024721360206604003 -0.03 0.6076084594726563
  endloop
 endfacet
 facet normal -0.0 -1.0 0.0
  outer loop
   vertex 0.005831748962402344 -0.03 0.6054763793945312
   vertex -0.0024721360206604003 -0.03 0.6076084594726563
   vertex -0.007010453224182129 -0.03 0.60385400390625
  endloop
 endfacet
 facet normal 0.0 -1.0 0.0
  outer loop
   vertex -0.0034062342643737796 -0.03 0.2927613830566406
   vertex -0.00509939193725586 -0.03 0.2938359069824219
   vertex -0.0042866144180297855 -0.03 0.29324539184570314
  endloop
 endfacet
 facet normal 0.0 -1.0 0.0
  outer loop
   vertex -0.00774866533279419 -0.03 0.2980104675292969
   vertex -0.007438211917877197 -0.03 0.2970549926757813
   vertex -0.007010453224182129 -0.03 0.2961459655761719
  endloop
 endfacet
 facet normal 0.0 -1.0 0.0
  outer loop
   vertex -0.00774866533279419 -0.03 0.2980104675292969
   vertex -0.007010453224182129 -0.03 0.2961459655761719
   vertex -0.0064721360206604 -0.03 0.2952977294921875
  endloop
 endfacet
 facet normal 0.0 -1.0 0.0
  outer loop
   vertex -0.00774866533279419 -0.03 0.2980104675292969
   vertex -0.0064721360206604 -0.03 0.2952977294921875
   vertex -0.005831748962402344 -0.03 0.29452362060546877
  endloop
 endfacet
 facet normal 0.0 -1.0 0.0
  outer loop
   vertex -0.00774866533279419 -0.03 0.2980104675292969
   vertex -0.005831748962402344 -0.03 0.29452362060546877
   vertex -0.00509939193725586 -0.03 0.2938359069824219
  endloop
 endfacet
 facet normal 0.0 -1.0 0.0
  outer loop
   vertex -0.00774866533279419 -0.03 0.2980104675292969
   vertex -0.00509939193725586 -0.03 0.2938359069824219
   vertex -0.0034062342643737796 -0.03 0.2927613830566406
  endloop
 endfacet
 facet normal 0.0 -1.0 0.0
  outer loop
   vertex 0.0005023241639137268 -0.03 0.29201577758789066
   vertex -0.0024721360206604003 -0.03 0.29239154052734373
   vertex -0.001499050498008728 -0.03 0.29214169311523436
  endloop
 endfacet
 facet normal 0.0 -1.0 0.0
  outer loop
   vertex 0.0005023241639137268 -0.03 0.29201577758789066
   vertex -0.001499050498008728 -0.03 0.29214169311523436
   vertex -0.0005023241639137268 -0.03 0.29201577758789066
  endloop
 endfacet
 facet normal 0.0 -1.0 0.0
  outer loop
   vertex 0.001499050498008728 -0.03 0.29214169311523436
   vertex -0.0034062342643737796 -0.03 0.2927613830566406
   vertex -0.0024721360206604003 -0.03 0.29239154052734373
  endloop
 endfacet
 facet normal -0.0 -1.0 0.0
  outer loop
   vertex 0.001499050498008728 -0.03 0.29214169311523436
   vertex -0.0024721360206604003 -0.03 0.29239154052734373
   vertex 0.0005023241639137268 -0.03 0.29201577758789066
  endloop
 endfacet
 facet normal 0.0 -1.0 0.0
  outer loop
   vertex 0.0034062342643737796 -0.03 0.2927613830566406
   vertex 0.001499050498008728 -0.03 0.29214169311523436
   vertex 0.0024721360206604003 -0.03 0.29239154052734373
  endloop
 endfacet
 facet normal 0.0 -1.0 0.0
  outer loop
   vertex 0.0042866144180297855 -0.03 0.29324539184570314
   vertex -0.0034062342643737796 -0.03 0.2927613830566406
   vertex 0.001499050498008728 -0.03 0.29214169311523436
  endloop
 endfacet
 facet normal 0.0 -1.0 0.0
  outer loop
   vertex 0.0042866144180297855 -0.03 0.29324539184570314
   vertex 0.001499050498008728 -0.03 0.29214169311523436
   vertex 0.0034062342643737796 -0.03 0.2927613830566406
  endloop
 endfacet
 facet normal 0.0 -1.0 0.0
  outer loop
   vertex -0.005831748962402344 -0.03 0.30547637939453126
   vertex -0.0064721360206604 -0.03 0.3047022705078125
   vertex -0.007010453224182129 -0.03 0.30385403442382813
  endloop
 endfacet
 facet normal 0.0 -1.0 0.0
  outer loop
   vertex 0.005831748962402344 -0.03 0.29452362060546877
   vertex 0.0042866144180297855 -0.03 0.29324539184570314
   vertex 0.00509939193725586 -0.03 0.2938359069824219
  endloop
 endfacet
 facet normal 0.0 -1.0 0.0
  outer loop
   vertex -0.0034062342643737796 -0.03 0.30723861694335936
   vertex -0.0042866144180297855 -0.03 0.3067546081542969
   vertex -0.00509939193725586 -0.03 0.30616409301757813
  endloop
 endfacet
 facet normal 0.0 -1.0 0.0
  outer loop
   vertex -0.0034062342643737796 -0.03 0.30723861694335936
   vertex -0.00509939193725586 -0.03 0.30616409301757813
   vertex -0.005831748962402344 -0.03 0.30547637939453126
  endloop
 endfacet
 facet normal 0.0 -1.0 0.0
  outer loop
   vertex 0.007438211917877197 -0.03 0.2970549926757813
   vertex 0.005831748962402344 -0.03 0.29452362060546877
   vertex 0.0064721360206604 -0.03 0.2952977294921875
  endloop
 endfacet
 facet normal 0.0 -1.0 0.0
  outer loop
   vertex 0.007438211917877197 -0.03 0.2970549926757813
   vertex 0.0064721360206604 -0.03 0.2952977294921875
   vertex 0.007010453224182129 -0.03 0.2961459655761719
  endloop
 endfacet
 facet normal 0.0 -1.0 0.0
  outer loop
   vertex -0.0024721360206604003 -0.03 0.30760845947265625
   vertex -0.0034062342643737796 -0.03 0.30723861694335936
   vertex -0.005831748962402344 -0.03 0.30547637939453126
  endloop
 endfacet
 facet normal 0.0 -1.0 0.0
  outer loop
   vertex -0.0024721360206604003 -0.03 0.30760845947265625
   vertex -0.005831748962402344 -0.03 0.30547637939453126
   vertex -0.007010453224182129 -0.03 0.30385403442382813
  endloop
 endfacet
 facet normal 0.0 -1.0 0.0
  outer loop
   vertex 0.00774866533279419 -0.03 0.2980104675292969
   vertex 0.0042866144180297855 -0.03 0.29324539184570314
   vertex 0.005831748962402344 -0.03 0.29452362060546877
  endloop
 endfacet
 facet normal 0.0 -1.0 0.0
  outer loop
   vertex 0.00774866533279419 -0.03 0.2980104675292969
   vertex 0.005831748962402344 -0.03 0.29452362060546877
   vertex 0.007438211917877197 -0.03 0.2970549926757813
  endloop
 endfacet
 facet normal 0.0 -1.0 0.0
  outer loop
   vertex 0.007936917781829833 -0.03 0.2989973449707031
   vertex 0.0042866144180297855 -0.03 0.29324539184570314
   vertex 0.00774866533279419 -0.03 0.2980104675292969
  endloop
 endfacet
 facet normal -0.0 -1.0 0.0
  outer loop
   vertex 0.007936917781829833 -0.03 0.2989973449707031
   vertex -0.007936917781829833 -0.03 0.2989973449707031
   vertex -0.00774866533279419 -0.03 0.2980104675292969
  endloop
 endfacet
 facet normal 0.0 -1.0 0.0
  outer loop
   vertex 0.007936917781829833 -0.03 0.2989973449707031
   vertex -0.00774866533279419 -0.03 0.2980104675292969
   vertex -0.0034062342643737796 -0.03 0.2927613830566406
  endloop
 endfacet
 facet normal 0.0 -1.0 0.0
  outer loop
   vertex 0.007936917781829833 -0.03 0.2989973449707031
   vertex -0.0034062342643737796 -0.03 0.2927613830566406
   vertex 0.0042866144180297855 -0.03 0.29324539184570314
  endloop
 endfacet
 facet normal 0.0 -1.0 0.0
  outer loop
   vertex -0.0005023241639137268 -0.03 0.3079842224121094
   vertex -0.001499050498008728 -0.03 0.3078583068847656
   vertex -0.0024721360206604003 -0.03 0.30760845947265625
  endloop
 endfacet
 facet normal 0.0 -1.0 0.0
  outer loop
   vertex 0.008 -0.03 0.3
   vertex -0.007936917781829833 -0.03 0.2989973449707031
   vertex 0.007936917781829833 -0.03 0.2989973449707031
  endloop
 endfacet
 facet normal 0.0 -1.0 0.0
  outer loop
   vertex 0.008 -0.03 0.3
   vertex -0.007010453224182129 -0.03 0.30385403442382813
   vertex -0.007438211917877197 -0.03 0.30294500732421875
  endloop
 endfacet
 facet normal 0.0 -1.0 0.0
  outer loop
   vertex 0.008 -0.03 0.3
   vertex -0.007438211917877197 -0.03 0.30294500732421875
   vertex -0.00774866533279419 -0.03 0.30198953247070315
  endloop
 endfacet
 facet normal 0.0 -1.0 0.0
  outer loop
   vertex 0.008 -0.03 0.3
   vertex -0.00774866533279419 -0.03 0.30198953247070315
   vertex -0.007936917781829833 -0.03 0.3010026550292969
  endloop
 endfacet
 facet normal 0.0 -1.0 0.0
  outer loop
   vertex 0.008 -0.03 0.3
   vertex -0.007936917781829833 -0.03 0.3010026550292969
   vertex -0.008 -0.03 0.3
  endloop
 endfacet
 facet normal -0.0 -1.0 0.0
  outer loop
   vertex 0.008 -0.03 0.3
   vertex -0.008 -0.03 0.3
   vertex -0.007936917781829833 -0.03 0.2989973449707031
  endloop
 endfacet
 facet normal 0.0 -1.0 0.0
  outer loop
   vertex 0.001499050498008728 -0.03 0.3078583068847656
   vertex 0.0005023241639137268 -0.03 0.3079842224121094
   vertex -0.0005023241639137268 -0.03 0.3079842224121094
  endloop
 endfacet
 facet normal 0.0 -1.0 0.0
  outer loop
   vertex 0.00774866533279419 -0.03 0.30198953247070315
   vertex 0.008 -0.03 0.3
   vertex 0.007936917781829833 -0.03 0.3010026550292969
  endloop
 endfacet
 facet normal 0.0 -1.0 0.0
  outer loop
   vertex 0.0024721360206604003 -0.03 0.30760845947265625
   vertex -0.0005023241639137268 -0.03 0.3079842224121094
   vertex -0.0024721360206604003 -0.03 0.30760845947265625
  endloop
 endfacet
 facet normal 0.0 -1.0 0.0
  outer loop
   vertex 0.0024721360206604003 -0.03 0.30760845947265625
   vertex 0.001499050498008728 -0.03 0.3078583068847656
   vertex -0.0005023241639137268 -0.03 0.3079842224121094
  endloop
 endfacet
 facet normal 0.0 -1.0 0.0
  outer loop
   vertex 0.0034062342643737796 -0.03 0.30723861694335936
   vertex 0.0024721360206604003 -0.03 0.30760845947265625
   vertex -0.0024721360206604003 -0.03 0.30760845947265625
  endloop
 endfacet
 facet normal 0.0 -1.0 0.0
  outer loop
   vertex 0.007010453224182129 -0.03 0.30385403442382813
   vertex 0.00774866533279419 -0.03 0.30198953247070315
   vertex 0.007438211917877197 -0.03 0.30294500732421875
  endloop
 endfacet
 facet normal 0.0 -1.0 0.0
  outer loop
   vertex 0.007010453224182129 -0.03 0.30385403442382813
   vertex 0.008 -0.03 0.3
   vertex 0.00774866533279419 -0.03 0.30198953247070315
  endloop
 endfacet
 facet normal 0.0 -1.0 0.0
  outer loop
   vertex 0.00509939193725586 -0.03 0.30616409301757813
   vertex 0.0042866144180297855 -0.03 0.3067546081542969
   vertex 0.0034062342643737796 -0.03 0.30723861694335936
  endloop
 endfacet
 facet normal 0.0 -1.0 0.0
  outer loop
   vertex 0.00509939193725586 -0.03 0.30616409301757813
   vertex 0.0034062342643737796 -0.03 0.30723861694335936
   vertex -0.0024721360206604003 -0.03 0.30760845947265625
  endloop
 endfacet
 facet normal 0.0 -1.0 -0.0
  outer loop
   vertex 0.005831748962402344 -0.03 0.30547637939453126
   vertex -0.007010453224182129 -0.03 0.30385403442382813
   vertex 0.008 -0.03 0.3
  endloop
 endfacet
 facet normal 0.0 -1.0 0.0
  outer loop
   vertex 0.005831748962402344 -0.03 0.30547637939453126
   vertex 0.007010453224182129 -0.03 0.30385403442382813
   vertex 0.0064721360206604 -0.03 0.3047022705078125
  endloop
 endfacet
 facet normal 0.0 -1.0 0.0
  outer loop
   vertex 0.005831748962402344 -0.03 0.30547637939453126
   vertex 0.008 -0.03 0.3
   vertex 0.007010453224182129 -0.03 0.30385403442382813
  endloop
 endfacet
 facet normal 0.0 -1.0 0.0
  outer loop
   vertex 0.005831748962402344 -0.03 0.30547637939453126
   vertex 0.00509939193725586 -0.03 0.30616409301757813
   vertex -0.0024721360206604003 -0.03 0.30760845947265625
  endloop
 endfacet
 facet normal -0.0 -1.0 0.0
  outer loop
   vertex 0.005831748962402344 -0.03 0.30547637939453126
   vertex -0.0024721360206604003 -0.03 0.30760845947265625
   vertex -0.007010453224182129 -0.03 0.30385403442382813
  endloop
 endfacet
endsolid patch_3_0
